%TF.GenerationSoftware,KiCad,Pcbnew,7.0.8*%
%TF.CreationDate,2023-12-28T00:41:14+01:00*%
%TF.ProjectId,guitar-pedal,67756974-6172-42d7-9065-64616c2e6b69,rev?*%
%TF.SameCoordinates,Original*%
%TF.FileFunction,Legend,Top*%
%TF.FilePolarity,Positive*%
%FSLAX46Y46*%
G04 Gerber Fmt 4.6, Leading zero omitted, Abs format (unit mm)*
G04 Created by KiCad (PCBNEW 7.0.8) date 2023-12-28 00:41:14*
%MOMM*%
%LPD*%
G01*
G04 APERTURE LIST*
%ADD10C,0.150000*%
%ADD11C,0.100000*%
%ADD12C,0.120000*%
%ADD13C,0.409210*%
%ADD14C,0.177000*%
G04 APERTURE END LIST*
D10*
X143336779Y-140346009D02*
X143670112Y-140346009D01*
X143812969Y-140869819D02*
X143336779Y-140869819D01*
X143336779Y-140869819D02*
X143336779Y-139869819D01*
X143336779Y-139869819D02*
X143812969Y-139869819D01*
X144098684Y-140203152D02*
X144479636Y-140203152D01*
X144241541Y-140869819D02*
X144241541Y-140012676D01*
X144241541Y-140012676D02*
X144289160Y-139917438D01*
X144289160Y-139917438D02*
X144384398Y-139869819D01*
X144384398Y-139869819D02*
X144479636Y-139869819D01*
X144670113Y-140203152D02*
X145051065Y-140203152D01*
X144812970Y-140869819D02*
X144812970Y-140012676D01*
X144812970Y-140012676D02*
X144860589Y-139917438D01*
X144860589Y-139917438D02*
X144955827Y-139869819D01*
X144955827Y-139869819D02*
X145051065Y-139869819D01*
X145765351Y-140822200D02*
X145670113Y-140869819D01*
X145670113Y-140869819D02*
X145479637Y-140869819D01*
X145479637Y-140869819D02*
X145384399Y-140822200D01*
X145384399Y-140822200D02*
X145336780Y-140726961D01*
X145336780Y-140726961D02*
X145336780Y-140346009D01*
X145336780Y-140346009D02*
X145384399Y-140250771D01*
X145384399Y-140250771D02*
X145479637Y-140203152D01*
X145479637Y-140203152D02*
X145670113Y-140203152D01*
X145670113Y-140203152D02*
X145765351Y-140250771D01*
X145765351Y-140250771D02*
X145812970Y-140346009D01*
X145812970Y-140346009D02*
X145812970Y-140441247D01*
X145812970Y-140441247D02*
X145336780Y-140536485D01*
X146670113Y-140822200D02*
X146574875Y-140869819D01*
X146574875Y-140869819D02*
X146384399Y-140869819D01*
X146384399Y-140869819D02*
X146289161Y-140822200D01*
X146289161Y-140822200D02*
X146241542Y-140774580D01*
X146241542Y-140774580D02*
X146193923Y-140679342D01*
X146193923Y-140679342D02*
X146193923Y-140393628D01*
X146193923Y-140393628D02*
X146241542Y-140298390D01*
X146241542Y-140298390D02*
X146289161Y-140250771D01*
X146289161Y-140250771D02*
X146384399Y-140203152D01*
X146384399Y-140203152D02*
X146574875Y-140203152D01*
X146574875Y-140203152D02*
X146670113Y-140250771D01*
X146955828Y-140203152D02*
X147336780Y-140203152D01*
X147098685Y-139869819D02*
X147098685Y-140726961D01*
X147098685Y-140726961D02*
X147146304Y-140822200D01*
X147146304Y-140822200D02*
X147241542Y-140869819D01*
X147241542Y-140869819D02*
X147336780Y-140869819D01*
X148384400Y-139965057D02*
X148432019Y-139917438D01*
X148432019Y-139917438D02*
X148527257Y-139869819D01*
X148527257Y-139869819D02*
X148765352Y-139869819D01*
X148765352Y-139869819D02*
X148860590Y-139917438D01*
X148860590Y-139917438D02*
X148908209Y-139965057D01*
X148908209Y-139965057D02*
X148955828Y-140060295D01*
X148955828Y-140060295D02*
X148955828Y-140155533D01*
X148955828Y-140155533D02*
X148908209Y-140298390D01*
X148908209Y-140298390D02*
X148336781Y-140869819D01*
X148336781Y-140869819D02*
X148955828Y-140869819D01*
X150146305Y-140869819D02*
X150146305Y-139869819D01*
X150146305Y-139869819D02*
X150527257Y-139869819D01*
X150527257Y-139869819D02*
X150622495Y-139917438D01*
X150622495Y-139917438D02*
X150670114Y-139965057D01*
X150670114Y-139965057D02*
X150717733Y-140060295D01*
X150717733Y-140060295D02*
X150717733Y-140203152D01*
X150717733Y-140203152D02*
X150670114Y-140298390D01*
X150670114Y-140298390D02*
X150622495Y-140346009D01*
X150622495Y-140346009D02*
X150527257Y-140393628D01*
X150527257Y-140393628D02*
X150146305Y-140393628D01*
X151574876Y-140869819D02*
X151574876Y-140346009D01*
X151574876Y-140346009D02*
X151527257Y-140250771D01*
X151527257Y-140250771D02*
X151432019Y-140203152D01*
X151432019Y-140203152D02*
X151241543Y-140203152D01*
X151241543Y-140203152D02*
X151146305Y-140250771D01*
X151574876Y-140822200D02*
X151479638Y-140869819D01*
X151479638Y-140869819D02*
X151241543Y-140869819D01*
X151241543Y-140869819D02*
X151146305Y-140822200D01*
X151146305Y-140822200D02*
X151098686Y-140726961D01*
X151098686Y-140726961D02*
X151098686Y-140631723D01*
X151098686Y-140631723D02*
X151146305Y-140536485D01*
X151146305Y-140536485D02*
X151241543Y-140488866D01*
X151241543Y-140488866D02*
X151479638Y-140488866D01*
X151479638Y-140488866D02*
X151574876Y-140441247D01*
X152051067Y-140869819D02*
X152051067Y-140203152D01*
X152051067Y-140393628D02*
X152098686Y-140298390D01*
X152098686Y-140298390D02*
X152146305Y-140250771D01*
X152146305Y-140250771D02*
X152241543Y-140203152D01*
X152241543Y-140203152D02*
X152336781Y-140203152D01*
X153098686Y-140869819D02*
X153098686Y-140346009D01*
X153098686Y-140346009D02*
X153051067Y-140250771D01*
X153051067Y-140250771D02*
X152955829Y-140203152D01*
X152955829Y-140203152D02*
X152765353Y-140203152D01*
X152765353Y-140203152D02*
X152670115Y-140250771D01*
X153098686Y-140822200D02*
X153003448Y-140869819D01*
X153003448Y-140869819D02*
X152765353Y-140869819D01*
X152765353Y-140869819D02*
X152670115Y-140822200D01*
X152670115Y-140822200D02*
X152622496Y-140726961D01*
X152622496Y-140726961D02*
X152622496Y-140631723D01*
X152622496Y-140631723D02*
X152670115Y-140536485D01*
X152670115Y-140536485D02*
X152765353Y-140488866D01*
X152765353Y-140488866D02*
X153003448Y-140488866D01*
X153003448Y-140488866D02*
X153098686Y-140441247D01*
X153574877Y-140869819D02*
X153574877Y-140203152D01*
X153574877Y-140298390D02*
X153622496Y-140250771D01*
X153622496Y-140250771D02*
X153717734Y-140203152D01*
X153717734Y-140203152D02*
X153860591Y-140203152D01*
X153860591Y-140203152D02*
X153955829Y-140250771D01*
X153955829Y-140250771D02*
X154003448Y-140346009D01*
X154003448Y-140346009D02*
X154003448Y-140869819D01*
X154003448Y-140346009D02*
X154051067Y-140250771D01*
X154051067Y-140250771D02*
X154146305Y-140203152D01*
X154146305Y-140203152D02*
X154289162Y-140203152D01*
X154289162Y-140203152D02*
X154384401Y-140250771D01*
X154384401Y-140250771D02*
X154432020Y-140346009D01*
X154432020Y-140346009D02*
X154432020Y-140869819D01*
X156193924Y-140869819D02*
X155622496Y-140869819D01*
X155908210Y-140869819D02*
X155908210Y-139869819D01*
X155908210Y-139869819D02*
X155812972Y-140012676D01*
X155812972Y-140012676D02*
X155717734Y-140107914D01*
X155717734Y-140107914D02*
X155622496Y-140155533D01*
X162336779Y-140346009D02*
X162670112Y-140346009D01*
X162812969Y-140869819D02*
X162336779Y-140869819D01*
X162336779Y-140869819D02*
X162336779Y-139869819D01*
X162336779Y-139869819D02*
X162812969Y-139869819D01*
X163098684Y-140203152D02*
X163479636Y-140203152D01*
X163241541Y-140869819D02*
X163241541Y-140012676D01*
X163241541Y-140012676D02*
X163289160Y-139917438D01*
X163289160Y-139917438D02*
X163384398Y-139869819D01*
X163384398Y-139869819D02*
X163479636Y-139869819D01*
X163670113Y-140203152D02*
X164051065Y-140203152D01*
X163812970Y-140869819D02*
X163812970Y-140012676D01*
X163812970Y-140012676D02*
X163860589Y-139917438D01*
X163860589Y-139917438D02*
X163955827Y-139869819D01*
X163955827Y-139869819D02*
X164051065Y-139869819D01*
X164765351Y-140822200D02*
X164670113Y-140869819D01*
X164670113Y-140869819D02*
X164479637Y-140869819D01*
X164479637Y-140869819D02*
X164384399Y-140822200D01*
X164384399Y-140822200D02*
X164336780Y-140726961D01*
X164336780Y-140726961D02*
X164336780Y-140346009D01*
X164336780Y-140346009D02*
X164384399Y-140250771D01*
X164384399Y-140250771D02*
X164479637Y-140203152D01*
X164479637Y-140203152D02*
X164670113Y-140203152D01*
X164670113Y-140203152D02*
X164765351Y-140250771D01*
X164765351Y-140250771D02*
X164812970Y-140346009D01*
X164812970Y-140346009D02*
X164812970Y-140441247D01*
X164812970Y-140441247D02*
X164336780Y-140536485D01*
X165670113Y-140822200D02*
X165574875Y-140869819D01*
X165574875Y-140869819D02*
X165384399Y-140869819D01*
X165384399Y-140869819D02*
X165289161Y-140822200D01*
X165289161Y-140822200D02*
X165241542Y-140774580D01*
X165241542Y-140774580D02*
X165193923Y-140679342D01*
X165193923Y-140679342D02*
X165193923Y-140393628D01*
X165193923Y-140393628D02*
X165241542Y-140298390D01*
X165241542Y-140298390D02*
X165289161Y-140250771D01*
X165289161Y-140250771D02*
X165384399Y-140203152D01*
X165384399Y-140203152D02*
X165574875Y-140203152D01*
X165574875Y-140203152D02*
X165670113Y-140250771D01*
X165955828Y-140203152D02*
X166336780Y-140203152D01*
X166098685Y-139869819D02*
X166098685Y-140726961D01*
X166098685Y-140726961D02*
X166146304Y-140822200D01*
X166146304Y-140822200D02*
X166241542Y-140869819D01*
X166241542Y-140869819D02*
X166336780Y-140869819D01*
X167384400Y-139965057D02*
X167432019Y-139917438D01*
X167432019Y-139917438D02*
X167527257Y-139869819D01*
X167527257Y-139869819D02*
X167765352Y-139869819D01*
X167765352Y-139869819D02*
X167860590Y-139917438D01*
X167860590Y-139917438D02*
X167908209Y-139965057D01*
X167908209Y-139965057D02*
X167955828Y-140060295D01*
X167955828Y-140060295D02*
X167955828Y-140155533D01*
X167955828Y-140155533D02*
X167908209Y-140298390D01*
X167908209Y-140298390D02*
X167336781Y-140869819D01*
X167336781Y-140869819D02*
X167955828Y-140869819D01*
X169146305Y-140869819D02*
X169146305Y-139869819D01*
X169146305Y-139869819D02*
X169527257Y-139869819D01*
X169527257Y-139869819D02*
X169622495Y-139917438D01*
X169622495Y-139917438D02*
X169670114Y-139965057D01*
X169670114Y-139965057D02*
X169717733Y-140060295D01*
X169717733Y-140060295D02*
X169717733Y-140203152D01*
X169717733Y-140203152D02*
X169670114Y-140298390D01*
X169670114Y-140298390D02*
X169622495Y-140346009D01*
X169622495Y-140346009D02*
X169527257Y-140393628D01*
X169527257Y-140393628D02*
X169146305Y-140393628D01*
X170574876Y-140869819D02*
X170574876Y-140346009D01*
X170574876Y-140346009D02*
X170527257Y-140250771D01*
X170527257Y-140250771D02*
X170432019Y-140203152D01*
X170432019Y-140203152D02*
X170241543Y-140203152D01*
X170241543Y-140203152D02*
X170146305Y-140250771D01*
X170574876Y-140822200D02*
X170479638Y-140869819D01*
X170479638Y-140869819D02*
X170241543Y-140869819D01*
X170241543Y-140869819D02*
X170146305Y-140822200D01*
X170146305Y-140822200D02*
X170098686Y-140726961D01*
X170098686Y-140726961D02*
X170098686Y-140631723D01*
X170098686Y-140631723D02*
X170146305Y-140536485D01*
X170146305Y-140536485D02*
X170241543Y-140488866D01*
X170241543Y-140488866D02*
X170479638Y-140488866D01*
X170479638Y-140488866D02*
X170574876Y-140441247D01*
X171051067Y-140869819D02*
X171051067Y-140203152D01*
X171051067Y-140393628D02*
X171098686Y-140298390D01*
X171098686Y-140298390D02*
X171146305Y-140250771D01*
X171146305Y-140250771D02*
X171241543Y-140203152D01*
X171241543Y-140203152D02*
X171336781Y-140203152D01*
X172098686Y-140869819D02*
X172098686Y-140346009D01*
X172098686Y-140346009D02*
X172051067Y-140250771D01*
X172051067Y-140250771D02*
X171955829Y-140203152D01*
X171955829Y-140203152D02*
X171765353Y-140203152D01*
X171765353Y-140203152D02*
X171670115Y-140250771D01*
X172098686Y-140822200D02*
X172003448Y-140869819D01*
X172003448Y-140869819D02*
X171765353Y-140869819D01*
X171765353Y-140869819D02*
X171670115Y-140822200D01*
X171670115Y-140822200D02*
X171622496Y-140726961D01*
X171622496Y-140726961D02*
X171622496Y-140631723D01*
X171622496Y-140631723D02*
X171670115Y-140536485D01*
X171670115Y-140536485D02*
X171765353Y-140488866D01*
X171765353Y-140488866D02*
X172003448Y-140488866D01*
X172003448Y-140488866D02*
X172098686Y-140441247D01*
X172574877Y-140869819D02*
X172574877Y-140203152D01*
X172574877Y-140298390D02*
X172622496Y-140250771D01*
X172622496Y-140250771D02*
X172717734Y-140203152D01*
X172717734Y-140203152D02*
X172860591Y-140203152D01*
X172860591Y-140203152D02*
X172955829Y-140250771D01*
X172955829Y-140250771D02*
X173003448Y-140346009D01*
X173003448Y-140346009D02*
X173003448Y-140869819D01*
X173003448Y-140346009D02*
X173051067Y-140250771D01*
X173051067Y-140250771D02*
X173146305Y-140203152D01*
X173146305Y-140203152D02*
X173289162Y-140203152D01*
X173289162Y-140203152D02*
X173384401Y-140250771D01*
X173384401Y-140250771D02*
X173432020Y-140346009D01*
X173432020Y-140346009D02*
X173432020Y-140869819D01*
X174622496Y-139965057D02*
X174670115Y-139917438D01*
X174670115Y-139917438D02*
X174765353Y-139869819D01*
X174765353Y-139869819D02*
X175003448Y-139869819D01*
X175003448Y-139869819D02*
X175098686Y-139917438D01*
X175098686Y-139917438D02*
X175146305Y-139965057D01*
X175146305Y-139965057D02*
X175193924Y-140060295D01*
X175193924Y-140060295D02*
X175193924Y-140155533D01*
X175193924Y-140155533D02*
X175146305Y-140298390D01*
X175146305Y-140298390D02*
X174574877Y-140869819D01*
X174574877Y-140869819D02*
X175193924Y-140869819D01*
X124836779Y-140346009D02*
X125170112Y-140346009D01*
X125312969Y-140869819D02*
X124836779Y-140869819D01*
X124836779Y-140869819D02*
X124836779Y-139869819D01*
X124836779Y-139869819D02*
X125312969Y-139869819D01*
X125598684Y-140203152D02*
X125979636Y-140203152D01*
X125741541Y-140869819D02*
X125741541Y-140012676D01*
X125741541Y-140012676D02*
X125789160Y-139917438D01*
X125789160Y-139917438D02*
X125884398Y-139869819D01*
X125884398Y-139869819D02*
X125979636Y-139869819D01*
X126170113Y-140203152D02*
X126551065Y-140203152D01*
X126312970Y-140869819D02*
X126312970Y-140012676D01*
X126312970Y-140012676D02*
X126360589Y-139917438D01*
X126360589Y-139917438D02*
X126455827Y-139869819D01*
X126455827Y-139869819D02*
X126551065Y-139869819D01*
X127265351Y-140822200D02*
X127170113Y-140869819D01*
X127170113Y-140869819D02*
X126979637Y-140869819D01*
X126979637Y-140869819D02*
X126884399Y-140822200D01*
X126884399Y-140822200D02*
X126836780Y-140726961D01*
X126836780Y-140726961D02*
X126836780Y-140346009D01*
X126836780Y-140346009D02*
X126884399Y-140250771D01*
X126884399Y-140250771D02*
X126979637Y-140203152D01*
X126979637Y-140203152D02*
X127170113Y-140203152D01*
X127170113Y-140203152D02*
X127265351Y-140250771D01*
X127265351Y-140250771D02*
X127312970Y-140346009D01*
X127312970Y-140346009D02*
X127312970Y-140441247D01*
X127312970Y-140441247D02*
X126836780Y-140536485D01*
X128170113Y-140822200D02*
X128074875Y-140869819D01*
X128074875Y-140869819D02*
X127884399Y-140869819D01*
X127884399Y-140869819D02*
X127789161Y-140822200D01*
X127789161Y-140822200D02*
X127741542Y-140774580D01*
X127741542Y-140774580D02*
X127693923Y-140679342D01*
X127693923Y-140679342D02*
X127693923Y-140393628D01*
X127693923Y-140393628D02*
X127741542Y-140298390D01*
X127741542Y-140298390D02*
X127789161Y-140250771D01*
X127789161Y-140250771D02*
X127884399Y-140203152D01*
X127884399Y-140203152D02*
X128074875Y-140203152D01*
X128074875Y-140203152D02*
X128170113Y-140250771D01*
X128455828Y-140203152D02*
X128836780Y-140203152D01*
X128598685Y-139869819D02*
X128598685Y-140726961D01*
X128598685Y-140726961D02*
X128646304Y-140822200D01*
X128646304Y-140822200D02*
X128741542Y-140869819D01*
X128741542Y-140869819D02*
X128836780Y-140869819D01*
X129884400Y-139965057D02*
X129932019Y-139917438D01*
X129932019Y-139917438D02*
X130027257Y-139869819D01*
X130027257Y-139869819D02*
X130265352Y-139869819D01*
X130265352Y-139869819D02*
X130360590Y-139917438D01*
X130360590Y-139917438D02*
X130408209Y-139965057D01*
X130408209Y-139965057D02*
X130455828Y-140060295D01*
X130455828Y-140060295D02*
X130455828Y-140155533D01*
X130455828Y-140155533D02*
X130408209Y-140298390D01*
X130408209Y-140298390D02*
X129836781Y-140869819D01*
X129836781Y-140869819D02*
X130455828Y-140869819D01*
X131646305Y-140869819D02*
X131646305Y-139869819D01*
X131646305Y-139869819D02*
X132027257Y-139869819D01*
X132027257Y-139869819D02*
X132122495Y-139917438D01*
X132122495Y-139917438D02*
X132170114Y-139965057D01*
X132170114Y-139965057D02*
X132217733Y-140060295D01*
X132217733Y-140060295D02*
X132217733Y-140203152D01*
X132217733Y-140203152D02*
X132170114Y-140298390D01*
X132170114Y-140298390D02*
X132122495Y-140346009D01*
X132122495Y-140346009D02*
X132027257Y-140393628D01*
X132027257Y-140393628D02*
X131646305Y-140393628D01*
X133074876Y-140869819D02*
X133074876Y-140346009D01*
X133074876Y-140346009D02*
X133027257Y-140250771D01*
X133027257Y-140250771D02*
X132932019Y-140203152D01*
X132932019Y-140203152D02*
X132741543Y-140203152D01*
X132741543Y-140203152D02*
X132646305Y-140250771D01*
X133074876Y-140822200D02*
X132979638Y-140869819D01*
X132979638Y-140869819D02*
X132741543Y-140869819D01*
X132741543Y-140869819D02*
X132646305Y-140822200D01*
X132646305Y-140822200D02*
X132598686Y-140726961D01*
X132598686Y-140726961D02*
X132598686Y-140631723D01*
X132598686Y-140631723D02*
X132646305Y-140536485D01*
X132646305Y-140536485D02*
X132741543Y-140488866D01*
X132741543Y-140488866D02*
X132979638Y-140488866D01*
X132979638Y-140488866D02*
X133074876Y-140441247D01*
X133551067Y-140869819D02*
X133551067Y-140203152D01*
X133551067Y-140393628D02*
X133598686Y-140298390D01*
X133598686Y-140298390D02*
X133646305Y-140250771D01*
X133646305Y-140250771D02*
X133741543Y-140203152D01*
X133741543Y-140203152D02*
X133836781Y-140203152D01*
X134598686Y-140869819D02*
X134598686Y-140346009D01*
X134598686Y-140346009D02*
X134551067Y-140250771D01*
X134551067Y-140250771D02*
X134455829Y-140203152D01*
X134455829Y-140203152D02*
X134265353Y-140203152D01*
X134265353Y-140203152D02*
X134170115Y-140250771D01*
X134598686Y-140822200D02*
X134503448Y-140869819D01*
X134503448Y-140869819D02*
X134265353Y-140869819D01*
X134265353Y-140869819D02*
X134170115Y-140822200D01*
X134170115Y-140822200D02*
X134122496Y-140726961D01*
X134122496Y-140726961D02*
X134122496Y-140631723D01*
X134122496Y-140631723D02*
X134170115Y-140536485D01*
X134170115Y-140536485D02*
X134265353Y-140488866D01*
X134265353Y-140488866D02*
X134503448Y-140488866D01*
X134503448Y-140488866D02*
X134598686Y-140441247D01*
X135074877Y-140869819D02*
X135074877Y-140203152D01*
X135074877Y-140298390D02*
X135122496Y-140250771D01*
X135122496Y-140250771D02*
X135217734Y-140203152D01*
X135217734Y-140203152D02*
X135360591Y-140203152D01*
X135360591Y-140203152D02*
X135455829Y-140250771D01*
X135455829Y-140250771D02*
X135503448Y-140346009D01*
X135503448Y-140346009D02*
X135503448Y-140869819D01*
X135503448Y-140346009D02*
X135551067Y-140250771D01*
X135551067Y-140250771D02*
X135646305Y-140203152D01*
X135646305Y-140203152D02*
X135789162Y-140203152D01*
X135789162Y-140203152D02*
X135884401Y-140250771D01*
X135884401Y-140250771D02*
X135932020Y-140346009D01*
X135932020Y-140346009D02*
X135932020Y-140869819D01*
X137360591Y-139869819D02*
X137455829Y-139869819D01*
X137455829Y-139869819D02*
X137551067Y-139917438D01*
X137551067Y-139917438D02*
X137598686Y-139965057D01*
X137598686Y-139965057D02*
X137646305Y-140060295D01*
X137646305Y-140060295D02*
X137693924Y-140250771D01*
X137693924Y-140250771D02*
X137693924Y-140488866D01*
X137693924Y-140488866D02*
X137646305Y-140679342D01*
X137646305Y-140679342D02*
X137598686Y-140774580D01*
X137598686Y-140774580D02*
X137551067Y-140822200D01*
X137551067Y-140822200D02*
X137455829Y-140869819D01*
X137455829Y-140869819D02*
X137360591Y-140869819D01*
X137360591Y-140869819D02*
X137265353Y-140822200D01*
X137265353Y-140822200D02*
X137217734Y-140774580D01*
X137217734Y-140774580D02*
X137170115Y-140679342D01*
X137170115Y-140679342D02*
X137122496Y-140488866D01*
X137122496Y-140488866D02*
X137122496Y-140250771D01*
X137122496Y-140250771D02*
X137170115Y-140060295D01*
X137170115Y-140060295D02*
X137217734Y-139965057D01*
X137217734Y-139965057D02*
X137265353Y-139917438D01*
X137265353Y-139917438D02*
X137360591Y-139869819D01*
X108836779Y-126846009D02*
X109170112Y-126846009D01*
X109312969Y-127369819D02*
X108836779Y-127369819D01*
X108836779Y-127369819D02*
X108836779Y-126369819D01*
X108836779Y-126369819D02*
X109312969Y-126369819D01*
X109598684Y-126703152D02*
X109979636Y-126703152D01*
X109741541Y-127369819D02*
X109741541Y-126512676D01*
X109741541Y-126512676D02*
X109789160Y-126417438D01*
X109789160Y-126417438D02*
X109884398Y-126369819D01*
X109884398Y-126369819D02*
X109979636Y-126369819D01*
X110170113Y-126703152D02*
X110551065Y-126703152D01*
X110312970Y-127369819D02*
X110312970Y-126512676D01*
X110312970Y-126512676D02*
X110360589Y-126417438D01*
X110360589Y-126417438D02*
X110455827Y-126369819D01*
X110455827Y-126369819D02*
X110551065Y-126369819D01*
X111265351Y-127322200D02*
X111170113Y-127369819D01*
X111170113Y-127369819D02*
X110979637Y-127369819D01*
X110979637Y-127369819D02*
X110884399Y-127322200D01*
X110884399Y-127322200D02*
X110836780Y-127226961D01*
X110836780Y-127226961D02*
X110836780Y-126846009D01*
X110836780Y-126846009D02*
X110884399Y-126750771D01*
X110884399Y-126750771D02*
X110979637Y-126703152D01*
X110979637Y-126703152D02*
X111170113Y-126703152D01*
X111170113Y-126703152D02*
X111265351Y-126750771D01*
X111265351Y-126750771D02*
X111312970Y-126846009D01*
X111312970Y-126846009D02*
X111312970Y-126941247D01*
X111312970Y-126941247D02*
X110836780Y-127036485D01*
X112170113Y-127322200D02*
X112074875Y-127369819D01*
X112074875Y-127369819D02*
X111884399Y-127369819D01*
X111884399Y-127369819D02*
X111789161Y-127322200D01*
X111789161Y-127322200D02*
X111741542Y-127274580D01*
X111741542Y-127274580D02*
X111693923Y-127179342D01*
X111693923Y-127179342D02*
X111693923Y-126893628D01*
X111693923Y-126893628D02*
X111741542Y-126798390D01*
X111741542Y-126798390D02*
X111789161Y-126750771D01*
X111789161Y-126750771D02*
X111884399Y-126703152D01*
X111884399Y-126703152D02*
X112074875Y-126703152D01*
X112074875Y-126703152D02*
X112170113Y-126750771D01*
X112455828Y-126703152D02*
X112836780Y-126703152D01*
X112598685Y-126369819D02*
X112598685Y-127226961D01*
X112598685Y-127226961D02*
X112646304Y-127322200D01*
X112646304Y-127322200D02*
X112741542Y-127369819D01*
X112741542Y-127369819D02*
X112836780Y-127369819D01*
X113884400Y-126465057D02*
X113932019Y-126417438D01*
X113932019Y-126417438D02*
X114027257Y-126369819D01*
X114027257Y-126369819D02*
X114265352Y-126369819D01*
X114265352Y-126369819D02*
X114360590Y-126417438D01*
X114360590Y-126417438D02*
X114408209Y-126465057D01*
X114408209Y-126465057D02*
X114455828Y-126560295D01*
X114455828Y-126560295D02*
X114455828Y-126655533D01*
X114455828Y-126655533D02*
X114408209Y-126798390D01*
X114408209Y-126798390D02*
X113836781Y-127369819D01*
X113836781Y-127369819D02*
X114455828Y-127369819D01*
X115646305Y-126846009D02*
X115979638Y-126846009D01*
X116122495Y-127369819D02*
X115646305Y-127369819D01*
X115646305Y-127369819D02*
X115646305Y-126369819D01*
X115646305Y-126369819D02*
X116122495Y-126369819D01*
X116551067Y-126703152D02*
X116551067Y-127369819D01*
X116551067Y-126798390D02*
X116598686Y-126750771D01*
X116598686Y-126750771D02*
X116693924Y-126703152D01*
X116693924Y-126703152D02*
X116836781Y-126703152D01*
X116836781Y-126703152D02*
X116932019Y-126750771D01*
X116932019Y-126750771D02*
X116979638Y-126846009D01*
X116979638Y-126846009D02*
X116979638Y-127369819D01*
X117884400Y-127369819D02*
X117884400Y-126846009D01*
X117884400Y-126846009D02*
X117836781Y-126750771D01*
X117836781Y-126750771D02*
X117741543Y-126703152D01*
X117741543Y-126703152D02*
X117551067Y-126703152D01*
X117551067Y-126703152D02*
X117455829Y-126750771D01*
X117884400Y-127322200D02*
X117789162Y-127369819D01*
X117789162Y-127369819D02*
X117551067Y-127369819D01*
X117551067Y-127369819D02*
X117455829Y-127322200D01*
X117455829Y-127322200D02*
X117408210Y-127226961D01*
X117408210Y-127226961D02*
X117408210Y-127131723D01*
X117408210Y-127131723D02*
X117455829Y-127036485D01*
X117455829Y-127036485D02*
X117551067Y-126988866D01*
X117551067Y-126988866D02*
X117789162Y-126988866D01*
X117789162Y-126988866D02*
X117884400Y-126941247D01*
X118360591Y-127369819D02*
X118360591Y-126369819D01*
X118360591Y-126750771D02*
X118455829Y-126703152D01*
X118455829Y-126703152D02*
X118646305Y-126703152D01*
X118646305Y-126703152D02*
X118741543Y-126750771D01*
X118741543Y-126750771D02*
X118789162Y-126798390D01*
X118789162Y-126798390D02*
X118836781Y-126893628D01*
X118836781Y-126893628D02*
X118836781Y-127179342D01*
X118836781Y-127179342D02*
X118789162Y-127274580D01*
X118789162Y-127274580D02*
X118741543Y-127322200D01*
X118741543Y-127322200D02*
X118646305Y-127369819D01*
X118646305Y-127369819D02*
X118455829Y-127369819D01*
X118455829Y-127369819D02*
X118360591Y-127322200D01*
X119408210Y-127369819D02*
X119312972Y-127322200D01*
X119312972Y-127322200D02*
X119265353Y-127226961D01*
X119265353Y-127226961D02*
X119265353Y-126369819D01*
X120170115Y-127322200D02*
X120074877Y-127369819D01*
X120074877Y-127369819D02*
X119884401Y-127369819D01*
X119884401Y-127369819D02*
X119789163Y-127322200D01*
X119789163Y-127322200D02*
X119741544Y-127226961D01*
X119741544Y-127226961D02*
X119741544Y-126846009D01*
X119741544Y-126846009D02*
X119789163Y-126750771D01*
X119789163Y-126750771D02*
X119884401Y-126703152D01*
X119884401Y-126703152D02*
X120074877Y-126703152D01*
X120074877Y-126703152D02*
X120170115Y-126750771D01*
X120170115Y-126750771D02*
X120217734Y-126846009D01*
X120217734Y-126846009D02*
X120217734Y-126941247D01*
X120217734Y-126941247D02*
X119741544Y-127036485D01*
X162836779Y-123346009D02*
X163170112Y-123346009D01*
X163312969Y-123869819D02*
X162836779Y-123869819D01*
X162836779Y-123869819D02*
X162836779Y-122869819D01*
X162836779Y-122869819D02*
X163312969Y-122869819D01*
X163598684Y-123203152D02*
X163979636Y-123203152D01*
X163741541Y-123869819D02*
X163741541Y-123012676D01*
X163741541Y-123012676D02*
X163789160Y-122917438D01*
X163789160Y-122917438D02*
X163884398Y-122869819D01*
X163884398Y-122869819D02*
X163979636Y-122869819D01*
X164170113Y-123203152D02*
X164551065Y-123203152D01*
X164312970Y-123869819D02*
X164312970Y-123012676D01*
X164312970Y-123012676D02*
X164360589Y-122917438D01*
X164360589Y-122917438D02*
X164455827Y-122869819D01*
X164455827Y-122869819D02*
X164551065Y-122869819D01*
X165265351Y-123822200D02*
X165170113Y-123869819D01*
X165170113Y-123869819D02*
X164979637Y-123869819D01*
X164979637Y-123869819D02*
X164884399Y-123822200D01*
X164884399Y-123822200D02*
X164836780Y-123726961D01*
X164836780Y-123726961D02*
X164836780Y-123346009D01*
X164836780Y-123346009D02*
X164884399Y-123250771D01*
X164884399Y-123250771D02*
X164979637Y-123203152D01*
X164979637Y-123203152D02*
X165170113Y-123203152D01*
X165170113Y-123203152D02*
X165265351Y-123250771D01*
X165265351Y-123250771D02*
X165312970Y-123346009D01*
X165312970Y-123346009D02*
X165312970Y-123441247D01*
X165312970Y-123441247D02*
X164836780Y-123536485D01*
X166170113Y-123822200D02*
X166074875Y-123869819D01*
X166074875Y-123869819D02*
X165884399Y-123869819D01*
X165884399Y-123869819D02*
X165789161Y-123822200D01*
X165789161Y-123822200D02*
X165741542Y-123774580D01*
X165741542Y-123774580D02*
X165693923Y-123679342D01*
X165693923Y-123679342D02*
X165693923Y-123393628D01*
X165693923Y-123393628D02*
X165741542Y-123298390D01*
X165741542Y-123298390D02*
X165789161Y-123250771D01*
X165789161Y-123250771D02*
X165884399Y-123203152D01*
X165884399Y-123203152D02*
X166074875Y-123203152D01*
X166074875Y-123203152D02*
X166170113Y-123250771D01*
X166455828Y-123203152D02*
X166836780Y-123203152D01*
X166598685Y-122869819D02*
X166598685Y-123726961D01*
X166598685Y-123726961D02*
X166646304Y-123822200D01*
X166646304Y-123822200D02*
X166741542Y-123869819D01*
X166741542Y-123869819D02*
X166836780Y-123869819D01*
X168455828Y-123869819D02*
X167884400Y-123869819D01*
X168170114Y-123869819D02*
X168170114Y-122869819D01*
X168170114Y-122869819D02*
X168074876Y-123012676D01*
X168074876Y-123012676D02*
X167979638Y-123107914D01*
X167979638Y-123107914D02*
X167884400Y-123155533D01*
X169646305Y-123869819D02*
X169646305Y-122869819D01*
X169646305Y-122869819D02*
X170027257Y-122869819D01*
X170027257Y-122869819D02*
X170122495Y-122917438D01*
X170122495Y-122917438D02*
X170170114Y-122965057D01*
X170170114Y-122965057D02*
X170217733Y-123060295D01*
X170217733Y-123060295D02*
X170217733Y-123203152D01*
X170217733Y-123203152D02*
X170170114Y-123298390D01*
X170170114Y-123298390D02*
X170122495Y-123346009D01*
X170122495Y-123346009D02*
X170027257Y-123393628D01*
X170027257Y-123393628D02*
X169646305Y-123393628D01*
X171074876Y-123869819D02*
X171074876Y-123346009D01*
X171074876Y-123346009D02*
X171027257Y-123250771D01*
X171027257Y-123250771D02*
X170932019Y-123203152D01*
X170932019Y-123203152D02*
X170741543Y-123203152D01*
X170741543Y-123203152D02*
X170646305Y-123250771D01*
X171074876Y-123822200D02*
X170979638Y-123869819D01*
X170979638Y-123869819D02*
X170741543Y-123869819D01*
X170741543Y-123869819D02*
X170646305Y-123822200D01*
X170646305Y-123822200D02*
X170598686Y-123726961D01*
X170598686Y-123726961D02*
X170598686Y-123631723D01*
X170598686Y-123631723D02*
X170646305Y-123536485D01*
X170646305Y-123536485D02*
X170741543Y-123488866D01*
X170741543Y-123488866D02*
X170979638Y-123488866D01*
X170979638Y-123488866D02*
X171074876Y-123441247D01*
X171551067Y-123869819D02*
X171551067Y-123203152D01*
X171551067Y-123393628D02*
X171598686Y-123298390D01*
X171598686Y-123298390D02*
X171646305Y-123250771D01*
X171646305Y-123250771D02*
X171741543Y-123203152D01*
X171741543Y-123203152D02*
X171836781Y-123203152D01*
X172598686Y-123869819D02*
X172598686Y-123346009D01*
X172598686Y-123346009D02*
X172551067Y-123250771D01*
X172551067Y-123250771D02*
X172455829Y-123203152D01*
X172455829Y-123203152D02*
X172265353Y-123203152D01*
X172265353Y-123203152D02*
X172170115Y-123250771D01*
X172598686Y-123822200D02*
X172503448Y-123869819D01*
X172503448Y-123869819D02*
X172265353Y-123869819D01*
X172265353Y-123869819D02*
X172170115Y-123822200D01*
X172170115Y-123822200D02*
X172122496Y-123726961D01*
X172122496Y-123726961D02*
X172122496Y-123631723D01*
X172122496Y-123631723D02*
X172170115Y-123536485D01*
X172170115Y-123536485D02*
X172265353Y-123488866D01*
X172265353Y-123488866D02*
X172503448Y-123488866D01*
X172503448Y-123488866D02*
X172598686Y-123441247D01*
X173074877Y-123869819D02*
X173074877Y-123203152D01*
X173074877Y-123298390D02*
X173122496Y-123250771D01*
X173122496Y-123250771D02*
X173217734Y-123203152D01*
X173217734Y-123203152D02*
X173360591Y-123203152D01*
X173360591Y-123203152D02*
X173455829Y-123250771D01*
X173455829Y-123250771D02*
X173503448Y-123346009D01*
X173503448Y-123346009D02*
X173503448Y-123869819D01*
X173503448Y-123346009D02*
X173551067Y-123250771D01*
X173551067Y-123250771D02*
X173646305Y-123203152D01*
X173646305Y-123203152D02*
X173789162Y-123203152D01*
X173789162Y-123203152D02*
X173884401Y-123250771D01*
X173884401Y-123250771D02*
X173932020Y-123346009D01*
X173932020Y-123346009D02*
X173932020Y-123869819D01*
X175122496Y-122965057D02*
X175170115Y-122917438D01*
X175170115Y-122917438D02*
X175265353Y-122869819D01*
X175265353Y-122869819D02*
X175503448Y-122869819D01*
X175503448Y-122869819D02*
X175598686Y-122917438D01*
X175598686Y-122917438D02*
X175646305Y-122965057D01*
X175646305Y-122965057D02*
X175693924Y-123060295D01*
X175693924Y-123060295D02*
X175693924Y-123155533D01*
X175693924Y-123155533D02*
X175646305Y-123298390D01*
X175646305Y-123298390D02*
X175074877Y-123869819D01*
X175074877Y-123869819D02*
X175693924Y-123869819D01*
X143836779Y-123346009D02*
X144170112Y-123346009D01*
X144312969Y-123869819D02*
X143836779Y-123869819D01*
X143836779Y-123869819D02*
X143836779Y-122869819D01*
X143836779Y-122869819D02*
X144312969Y-122869819D01*
X144598684Y-123203152D02*
X144979636Y-123203152D01*
X144741541Y-123869819D02*
X144741541Y-123012676D01*
X144741541Y-123012676D02*
X144789160Y-122917438D01*
X144789160Y-122917438D02*
X144884398Y-122869819D01*
X144884398Y-122869819D02*
X144979636Y-122869819D01*
X145170113Y-123203152D02*
X145551065Y-123203152D01*
X145312970Y-123869819D02*
X145312970Y-123012676D01*
X145312970Y-123012676D02*
X145360589Y-122917438D01*
X145360589Y-122917438D02*
X145455827Y-122869819D01*
X145455827Y-122869819D02*
X145551065Y-122869819D01*
X146265351Y-123822200D02*
X146170113Y-123869819D01*
X146170113Y-123869819D02*
X145979637Y-123869819D01*
X145979637Y-123869819D02*
X145884399Y-123822200D01*
X145884399Y-123822200D02*
X145836780Y-123726961D01*
X145836780Y-123726961D02*
X145836780Y-123346009D01*
X145836780Y-123346009D02*
X145884399Y-123250771D01*
X145884399Y-123250771D02*
X145979637Y-123203152D01*
X145979637Y-123203152D02*
X146170113Y-123203152D01*
X146170113Y-123203152D02*
X146265351Y-123250771D01*
X146265351Y-123250771D02*
X146312970Y-123346009D01*
X146312970Y-123346009D02*
X146312970Y-123441247D01*
X146312970Y-123441247D02*
X145836780Y-123536485D01*
X147170113Y-123822200D02*
X147074875Y-123869819D01*
X147074875Y-123869819D02*
X146884399Y-123869819D01*
X146884399Y-123869819D02*
X146789161Y-123822200D01*
X146789161Y-123822200D02*
X146741542Y-123774580D01*
X146741542Y-123774580D02*
X146693923Y-123679342D01*
X146693923Y-123679342D02*
X146693923Y-123393628D01*
X146693923Y-123393628D02*
X146741542Y-123298390D01*
X146741542Y-123298390D02*
X146789161Y-123250771D01*
X146789161Y-123250771D02*
X146884399Y-123203152D01*
X146884399Y-123203152D02*
X147074875Y-123203152D01*
X147074875Y-123203152D02*
X147170113Y-123250771D01*
X147455828Y-123203152D02*
X147836780Y-123203152D01*
X147598685Y-122869819D02*
X147598685Y-123726961D01*
X147598685Y-123726961D02*
X147646304Y-123822200D01*
X147646304Y-123822200D02*
X147741542Y-123869819D01*
X147741542Y-123869819D02*
X147836780Y-123869819D01*
X149455828Y-123869819D02*
X148884400Y-123869819D01*
X149170114Y-123869819D02*
X149170114Y-122869819D01*
X149170114Y-122869819D02*
X149074876Y-123012676D01*
X149074876Y-123012676D02*
X148979638Y-123107914D01*
X148979638Y-123107914D02*
X148884400Y-123155533D01*
X150646305Y-123869819D02*
X150646305Y-122869819D01*
X150646305Y-122869819D02*
X151027257Y-122869819D01*
X151027257Y-122869819D02*
X151122495Y-122917438D01*
X151122495Y-122917438D02*
X151170114Y-122965057D01*
X151170114Y-122965057D02*
X151217733Y-123060295D01*
X151217733Y-123060295D02*
X151217733Y-123203152D01*
X151217733Y-123203152D02*
X151170114Y-123298390D01*
X151170114Y-123298390D02*
X151122495Y-123346009D01*
X151122495Y-123346009D02*
X151027257Y-123393628D01*
X151027257Y-123393628D02*
X150646305Y-123393628D01*
X152074876Y-123869819D02*
X152074876Y-123346009D01*
X152074876Y-123346009D02*
X152027257Y-123250771D01*
X152027257Y-123250771D02*
X151932019Y-123203152D01*
X151932019Y-123203152D02*
X151741543Y-123203152D01*
X151741543Y-123203152D02*
X151646305Y-123250771D01*
X152074876Y-123822200D02*
X151979638Y-123869819D01*
X151979638Y-123869819D02*
X151741543Y-123869819D01*
X151741543Y-123869819D02*
X151646305Y-123822200D01*
X151646305Y-123822200D02*
X151598686Y-123726961D01*
X151598686Y-123726961D02*
X151598686Y-123631723D01*
X151598686Y-123631723D02*
X151646305Y-123536485D01*
X151646305Y-123536485D02*
X151741543Y-123488866D01*
X151741543Y-123488866D02*
X151979638Y-123488866D01*
X151979638Y-123488866D02*
X152074876Y-123441247D01*
X152551067Y-123869819D02*
X152551067Y-123203152D01*
X152551067Y-123393628D02*
X152598686Y-123298390D01*
X152598686Y-123298390D02*
X152646305Y-123250771D01*
X152646305Y-123250771D02*
X152741543Y-123203152D01*
X152741543Y-123203152D02*
X152836781Y-123203152D01*
X153598686Y-123869819D02*
X153598686Y-123346009D01*
X153598686Y-123346009D02*
X153551067Y-123250771D01*
X153551067Y-123250771D02*
X153455829Y-123203152D01*
X153455829Y-123203152D02*
X153265353Y-123203152D01*
X153265353Y-123203152D02*
X153170115Y-123250771D01*
X153598686Y-123822200D02*
X153503448Y-123869819D01*
X153503448Y-123869819D02*
X153265353Y-123869819D01*
X153265353Y-123869819D02*
X153170115Y-123822200D01*
X153170115Y-123822200D02*
X153122496Y-123726961D01*
X153122496Y-123726961D02*
X153122496Y-123631723D01*
X153122496Y-123631723D02*
X153170115Y-123536485D01*
X153170115Y-123536485D02*
X153265353Y-123488866D01*
X153265353Y-123488866D02*
X153503448Y-123488866D01*
X153503448Y-123488866D02*
X153598686Y-123441247D01*
X154074877Y-123869819D02*
X154074877Y-123203152D01*
X154074877Y-123298390D02*
X154122496Y-123250771D01*
X154122496Y-123250771D02*
X154217734Y-123203152D01*
X154217734Y-123203152D02*
X154360591Y-123203152D01*
X154360591Y-123203152D02*
X154455829Y-123250771D01*
X154455829Y-123250771D02*
X154503448Y-123346009D01*
X154503448Y-123346009D02*
X154503448Y-123869819D01*
X154503448Y-123346009D02*
X154551067Y-123250771D01*
X154551067Y-123250771D02*
X154646305Y-123203152D01*
X154646305Y-123203152D02*
X154789162Y-123203152D01*
X154789162Y-123203152D02*
X154884401Y-123250771D01*
X154884401Y-123250771D02*
X154932020Y-123346009D01*
X154932020Y-123346009D02*
X154932020Y-123869819D01*
X156693924Y-123869819D02*
X156122496Y-123869819D01*
X156408210Y-123869819D02*
X156408210Y-122869819D01*
X156408210Y-122869819D02*
X156312972Y-123012676D01*
X156312972Y-123012676D02*
X156217734Y-123107914D01*
X156217734Y-123107914D02*
X156122496Y-123155533D01*
X125336779Y-123346009D02*
X125670112Y-123346009D01*
X125812969Y-123869819D02*
X125336779Y-123869819D01*
X125336779Y-123869819D02*
X125336779Y-122869819D01*
X125336779Y-122869819D02*
X125812969Y-122869819D01*
X126098684Y-123203152D02*
X126479636Y-123203152D01*
X126241541Y-123869819D02*
X126241541Y-123012676D01*
X126241541Y-123012676D02*
X126289160Y-122917438D01*
X126289160Y-122917438D02*
X126384398Y-122869819D01*
X126384398Y-122869819D02*
X126479636Y-122869819D01*
X126670113Y-123203152D02*
X127051065Y-123203152D01*
X126812970Y-123869819D02*
X126812970Y-123012676D01*
X126812970Y-123012676D02*
X126860589Y-122917438D01*
X126860589Y-122917438D02*
X126955827Y-122869819D01*
X126955827Y-122869819D02*
X127051065Y-122869819D01*
X127765351Y-123822200D02*
X127670113Y-123869819D01*
X127670113Y-123869819D02*
X127479637Y-123869819D01*
X127479637Y-123869819D02*
X127384399Y-123822200D01*
X127384399Y-123822200D02*
X127336780Y-123726961D01*
X127336780Y-123726961D02*
X127336780Y-123346009D01*
X127336780Y-123346009D02*
X127384399Y-123250771D01*
X127384399Y-123250771D02*
X127479637Y-123203152D01*
X127479637Y-123203152D02*
X127670113Y-123203152D01*
X127670113Y-123203152D02*
X127765351Y-123250771D01*
X127765351Y-123250771D02*
X127812970Y-123346009D01*
X127812970Y-123346009D02*
X127812970Y-123441247D01*
X127812970Y-123441247D02*
X127336780Y-123536485D01*
X128670113Y-123822200D02*
X128574875Y-123869819D01*
X128574875Y-123869819D02*
X128384399Y-123869819D01*
X128384399Y-123869819D02*
X128289161Y-123822200D01*
X128289161Y-123822200D02*
X128241542Y-123774580D01*
X128241542Y-123774580D02*
X128193923Y-123679342D01*
X128193923Y-123679342D02*
X128193923Y-123393628D01*
X128193923Y-123393628D02*
X128241542Y-123298390D01*
X128241542Y-123298390D02*
X128289161Y-123250771D01*
X128289161Y-123250771D02*
X128384399Y-123203152D01*
X128384399Y-123203152D02*
X128574875Y-123203152D01*
X128574875Y-123203152D02*
X128670113Y-123250771D01*
X128955828Y-123203152D02*
X129336780Y-123203152D01*
X129098685Y-122869819D02*
X129098685Y-123726961D01*
X129098685Y-123726961D02*
X129146304Y-123822200D01*
X129146304Y-123822200D02*
X129241542Y-123869819D01*
X129241542Y-123869819D02*
X129336780Y-123869819D01*
X130955828Y-123869819D02*
X130384400Y-123869819D01*
X130670114Y-123869819D02*
X130670114Y-122869819D01*
X130670114Y-122869819D02*
X130574876Y-123012676D01*
X130574876Y-123012676D02*
X130479638Y-123107914D01*
X130479638Y-123107914D02*
X130384400Y-123155533D01*
X132146305Y-123869819D02*
X132146305Y-122869819D01*
X132146305Y-122869819D02*
X132527257Y-122869819D01*
X132527257Y-122869819D02*
X132622495Y-122917438D01*
X132622495Y-122917438D02*
X132670114Y-122965057D01*
X132670114Y-122965057D02*
X132717733Y-123060295D01*
X132717733Y-123060295D02*
X132717733Y-123203152D01*
X132717733Y-123203152D02*
X132670114Y-123298390D01*
X132670114Y-123298390D02*
X132622495Y-123346009D01*
X132622495Y-123346009D02*
X132527257Y-123393628D01*
X132527257Y-123393628D02*
X132146305Y-123393628D01*
X133574876Y-123869819D02*
X133574876Y-123346009D01*
X133574876Y-123346009D02*
X133527257Y-123250771D01*
X133527257Y-123250771D02*
X133432019Y-123203152D01*
X133432019Y-123203152D02*
X133241543Y-123203152D01*
X133241543Y-123203152D02*
X133146305Y-123250771D01*
X133574876Y-123822200D02*
X133479638Y-123869819D01*
X133479638Y-123869819D02*
X133241543Y-123869819D01*
X133241543Y-123869819D02*
X133146305Y-123822200D01*
X133146305Y-123822200D02*
X133098686Y-123726961D01*
X133098686Y-123726961D02*
X133098686Y-123631723D01*
X133098686Y-123631723D02*
X133146305Y-123536485D01*
X133146305Y-123536485D02*
X133241543Y-123488866D01*
X133241543Y-123488866D02*
X133479638Y-123488866D01*
X133479638Y-123488866D02*
X133574876Y-123441247D01*
X134051067Y-123869819D02*
X134051067Y-123203152D01*
X134051067Y-123393628D02*
X134098686Y-123298390D01*
X134098686Y-123298390D02*
X134146305Y-123250771D01*
X134146305Y-123250771D02*
X134241543Y-123203152D01*
X134241543Y-123203152D02*
X134336781Y-123203152D01*
X135098686Y-123869819D02*
X135098686Y-123346009D01*
X135098686Y-123346009D02*
X135051067Y-123250771D01*
X135051067Y-123250771D02*
X134955829Y-123203152D01*
X134955829Y-123203152D02*
X134765353Y-123203152D01*
X134765353Y-123203152D02*
X134670115Y-123250771D01*
X135098686Y-123822200D02*
X135003448Y-123869819D01*
X135003448Y-123869819D02*
X134765353Y-123869819D01*
X134765353Y-123869819D02*
X134670115Y-123822200D01*
X134670115Y-123822200D02*
X134622496Y-123726961D01*
X134622496Y-123726961D02*
X134622496Y-123631723D01*
X134622496Y-123631723D02*
X134670115Y-123536485D01*
X134670115Y-123536485D02*
X134765353Y-123488866D01*
X134765353Y-123488866D02*
X135003448Y-123488866D01*
X135003448Y-123488866D02*
X135098686Y-123441247D01*
X135574877Y-123869819D02*
X135574877Y-123203152D01*
X135574877Y-123298390D02*
X135622496Y-123250771D01*
X135622496Y-123250771D02*
X135717734Y-123203152D01*
X135717734Y-123203152D02*
X135860591Y-123203152D01*
X135860591Y-123203152D02*
X135955829Y-123250771D01*
X135955829Y-123250771D02*
X136003448Y-123346009D01*
X136003448Y-123346009D02*
X136003448Y-123869819D01*
X136003448Y-123346009D02*
X136051067Y-123250771D01*
X136051067Y-123250771D02*
X136146305Y-123203152D01*
X136146305Y-123203152D02*
X136289162Y-123203152D01*
X136289162Y-123203152D02*
X136384401Y-123250771D01*
X136384401Y-123250771D02*
X136432020Y-123346009D01*
X136432020Y-123346009D02*
X136432020Y-123869819D01*
X137860591Y-122869819D02*
X137955829Y-122869819D01*
X137955829Y-122869819D02*
X138051067Y-122917438D01*
X138051067Y-122917438D02*
X138098686Y-122965057D01*
X138098686Y-122965057D02*
X138146305Y-123060295D01*
X138146305Y-123060295D02*
X138193924Y-123250771D01*
X138193924Y-123250771D02*
X138193924Y-123488866D01*
X138193924Y-123488866D02*
X138146305Y-123679342D01*
X138146305Y-123679342D02*
X138098686Y-123774580D01*
X138098686Y-123774580D02*
X138051067Y-123822200D01*
X138051067Y-123822200D02*
X137955829Y-123869819D01*
X137955829Y-123869819D02*
X137860591Y-123869819D01*
X137860591Y-123869819D02*
X137765353Y-123822200D01*
X137765353Y-123822200D02*
X137717734Y-123774580D01*
X137717734Y-123774580D02*
X137670115Y-123679342D01*
X137670115Y-123679342D02*
X137622496Y-123488866D01*
X137622496Y-123488866D02*
X137622496Y-123250771D01*
X137622496Y-123250771D02*
X137670115Y-123060295D01*
X137670115Y-123060295D02*
X137717734Y-122965057D01*
X137717734Y-122965057D02*
X137765353Y-122917438D01*
X137765353Y-122917438D02*
X137860591Y-122869819D01*
X108836779Y-123346009D02*
X109170112Y-123346009D01*
X109312969Y-123869819D02*
X108836779Y-123869819D01*
X108836779Y-123869819D02*
X108836779Y-122869819D01*
X108836779Y-122869819D02*
X109312969Y-122869819D01*
X109598684Y-123203152D02*
X109979636Y-123203152D01*
X109741541Y-123869819D02*
X109741541Y-123012676D01*
X109741541Y-123012676D02*
X109789160Y-122917438D01*
X109789160Y-122917438D02*
X109884398Y-122869819D01*
X109884398Y-122869819D02*
X109979636Y-122869819D01*
X110170113Y-123203152D02*
X110551065Y-123203152D01*
X110312970Y-123869819D02*
X110312970Y-123012676D01*
X110312970Y-123012676D02*
X110360589Y-122917438D01*
X110360589Y-122917438D02*
X110455827Y-122869819D01*
X110455827Y-122869819D02*
X110551065Y-122869819D01*
X111265351Y-123822200D02*
X111170113Y-123869819D01*
X111170113Y-123869819D02*
X110979637Y-123869819D01*
X110979637Y-123869819D02*
X110884399Y-123822200D01*
X110884399Y-123822200D02*
X110836780Y-123726961D01*
X110836780Y-123726961D02*
X110836780Y-123346009D01*
X110836780Y-123346009D02*
X110884399Y-123250771D01*
X110884399Y-123250771D02*
X110979637Y-123203152D01*
X110979637Y-123203152D02*
X111170113Y-123203152D01*
X111170113Y-123203152D02*
X111265351Y-123250771D01*
X111265351Y-123250771D02*
X111312970Y-123346009D01*
X111312970Y-123346009D02*
X111312970Y-123441247D01*
X111312970Y-123441247D02*
X110836780Y-123536485D01*
X112170113Y-123822200D02*
X112074875Y-123869819D01*
X112074875Y-123869819D02*
X111884399Y-123869819D01*
X111884399Y-123869819D02*
X111789161Y-123822200D01*
X111789161Y-123822200D02*
X111741542Y-123774580D01*
X111741542Y-123774580D02*
X111693923Y-123679342D01*
X111693923Y-123679342D02*
X111693923Y-123393628D01*
X111693923Y-123393628D02*
X111741542Y-123298390D01*
X111741542Y-123298390D02*
X111789161Y-123250771D01*
X111789161Y-123250771D02*
X111884399Y-123203152D01*
X111884399Y-123203152D02*
X112074875Y-123203152D01*
X112074875Y-123203152D02*
X112170113Y-123250771D01*
X112455828Y-123203152D02*
X112836780Y-123203152D01*
X112598685Y-122869819D02*
X112598685Y-123726961D01*
X112598685Y-123726961D02*
X112646304Y-123822200D01*
X112646304Y-123822200D02*
X112741542Y-123869819D01*
X112741542Y-123869819D02*
X112836780Y-123869819D01*
X114455828Y-123869819D02*
X113884400Y-123869819D01*
X114170114Y-123869819D02*
X114170114Y-122869819D01*
X114170114Y-122869819D02*
X114074876Y-123012676D01*
X114074876Y-123012676D02*
X113979638Y-123107914D01*
X113979638Y-123107914D02*
X113884400Y-123155533D01*
X115646305Y-123346009D02*
X115979638Y-123346009D01*
X116122495Y-123869819D02*
X115646305Y-123869819D01*
X115646305Y-123869819D02*
X115646305Y-122869819D01*
X115646305Y-122869819D02*
X116122495Y-122869819D01*
X116551067Y-123203152D02*
X116551067Y-123869819D01*
X116551067Y-123298390D02*
X116598686Y-123250771D01*
X116598686Y-123250771D02*
X116693924Y-123203152D01*
X116693924Y-123203152D02*
X116836781Y-123203152D01*
X116836781Y-123203152D02*
X116932019Y-123250771D01*
X116932019Y-123250771D02*
X116979638Y-123346009D01*
X116979638Y-123346009D02*
X116979638Y-123869819D01*
X117884400Y-123869819D02*
X117884400Y-123346009D01*
X117884400Y-123346009D02*
X117836781Y-123250771D01*
X117836781Y-123250771D02*
X117741543Y-123203152D01*
X117741543Y-123203152D02*
X117551067Y-123203152D01*
X117551067Y-123203152D02*
X117455829Y-123250771D01*
X117884400Y-123822200D02*
X117789162Y-123869819D01*
X117789162Y-123869819D02*
X117551067Y-123869819D01*
X117551067Y-123869819D02*
X117455829Y-123822200D01*
X117455829Y-123822200D02*
X117408210Y-123726961D01*
X117408210Y-123726961D02*
X117408210Y-123631723D01*
X117408210Y-123631723D02*
X117455829Y-123536485D01*
X117455829Y-123536485D02*
X117551067Y-123488866D01*
X117551067Y-123488866D02*
X117789162Y-123488866D01*
X117789162Y-123488866D02*
X117884400Y-123441247D01*
X118360591Y-123869819D02*
X118360591Y-122869819D01*
X118360591Y-123250771D02*
X118455829Y-123203152D01*
X118455829Y-123203152D02*
X118646305Y-123203152D01*
X118646305Y-123203152D02*
X118741543Y-123250771D01*
X118741543Y-123250771D02*
X118789162Y-123298390D01*
X118789162Y-123298390D02*
X118836781Y-123393628D01*
X118836781Y-123393628D02*
X118836781Y-123679342D01*
X118836781Y-123679342D02*
X118789162Y-123774580D01*
X118789162Y-123774580D02*
X118741543Y-123822200D01*
X118741543Y-123822200D02*
X118646305Y-123869819D01*
X118646305Y-123869819D02*
X118455829Y-123869819D01*
X118455829Y-123869819D02*
X118360591Y-123822200D01*
X119408210Y-123869819D02*
X119312972Y-123822200D01*
X119312972Y-123822200D02*
X119265353Y-123726961D01*
X119265353Y-123726961D02*
X119265353Y-122869819D01*
X120170115Y-123822200D02*
X120074877Y-123869819D01*
X120074877Y-123869819D02*
X119884401Y-123869819D01*
X119884401Y-123869819D02*
X119789163Y-123822200D01*
X119789163Y-123822200D02*
X119741544Y-123726961D01*
X119741544Y-123726961D02*
X119741544Y-123346009D01*
X119741544Y-123346009D02*
X119789163Y-123250771D01*
X119789163Y-123250771D02*
X119884401Y-123203152D01*
X119884401Y-123203152D02*
X120074877Y-123203152D01*
X120074877Y-123203152D02*
X120170115Y-123250771D01*
X120170115Y-123250771D02*
X120217734Y-123346009D01*
X120217734Y-123346009D02*
X120217734Y-123441247D01*
X120217734Y-123441247D02*
X119741544Y-123536485D01*
X124369819Y-61028144D02*
X124369819Y-60837668D01*
X124369819Y-60837668D02*
X124417438Y-60742430D01*
X124417438Y-60742430D02*
X124512676Y-60647192D01*
X124512676Y-60647192D02*
X124703152Y-60599573D01*
X124703152Y-60599573D02*
X125036485Y-60599573D01*
X125036485Y-60599573D02*
X125226961Y-60647192D01*
X125226961Y-60647192D02*
X125322200Y-60742430D01*
X125322200Y-60742430D02*
X125369819Y-60837668D01*
X125369819Y-60837668D02*
X125369819Y-61028144D01*
X125369819Y-61028144D02*
X125322200Y-61123382D01*
X125322200Y-61123382D02*
X125226961Y-61218620D01*
X125226961Y-61218620D02*
X125036485Y-61266239D01*
X125036485Y-61266239D02*
X124703152Y-61266239D01*
X124703152Y-61266239D02*
X124512676Y-61218620D01*
X124512676Y-61218620D02*
X124417438Y-61123382D01*
X124417438Y-61123382D02*
X124369819Y-61028144D01*
X124703152Y-59742430D02*
X125369819Y-59742430D01*
X124703152Y-60171001D02*
X125226961Y-60171001D01*
X125226961Y-60171001D02*
X125322200Y-60123382D01*
X125322200Y-60123382D02*
X125369819Y-60028144D01*
X125369819Y-60028144D02*
X125369819Y-59885287D01*
X125369819Y-59885287D02*
X125322200Y-59790049D01*
X125322200Y-59790049D02*
X125274580Y-59742430D01*
X124703152Y-59409096D02*
X124703152Y-59028144D01*
X124369819Y-59266239D02*
X125226961Y-59266239D01*
X125226961Y-59266239D02*
X125322200Y-59218620D01*
X125322200Y-59218620D02*
X125369819Y-59123382D01*
X125369819Y-59123382D02*
X125369819Y-59028144D01*
X124703152Y-58694810D02*
X125703152Y-58694810D01*
X124750771Y-58694810D02*
X124703152Y-58599572D01*
X124703152Y-58599572D02*
X124703152Y-58409096D01*
X124703152Y-58409096D02*
X124750771Y-58313858D01*
X124750771Y-58313858D02*
X124798390Y-58266239D01*
X124798390Y-58266239D02*
X124893628Y-58218620D01*
X124893628Y-58218620D02*
X125179342Y-58218620D01*
X125179342Y-58218620D02*
X125274580Y-58266239D01*
X125274580Y-58266239D02*
X125322200Y-58313858D01*
X125322200Y-58313858D02*
X125369819Y-58409096D01*
X125369819Y-58409096D02*
X125369819Y-58599572D01*
X125369819Y-58599572D02*
X125322200Y-58694810D01*
X124703152Y-57361477D02*
X125369819Y-57361477D01*
X124703152Y-57790048D02*
X125226961Y-57790048D01*
X125226961Y-57790048D02*
X125322200Y-57742429D01*
X125322200Y-57742429D02*
X125369819Y-57647191D01*
X125369819Y-57647191D02*
X125369819Y-57504334D01*
X125369819Y-57504334D02*
X125322200Y-57409096D01*
X125322200Y-57409096D02*
X125274580Y-57361477D01*
X124703152Y-57028143D02*
X124703152Y-56647191D01*
X124369819Y-56885286D02*
X125226961Y-56885286D01*
X125226961Y-56885286D02*
X125322200Y-56837667D01*
X125322200Y-56837667D02*
X125369819Y-56742429D01*
X125369819Y-56742429D02*
X125369819Y-56647191D01*
X151316219Y-60964620D02*
X150316219Y-60964620D01*
X150649552Y-60488430D02*
X151316219Y-60488430D01*
X150744790Y-60488430D02*
X150697171Y-60440811D01*
X150697171Y-60440811D02*
X150649552Y-60345573D01*
X150649552Y-60345573D02*
X150649552Y-60202716D01*
X150649552Y-60202716D02*
X150697171Y-60107478D01*
X150697171Y-60107478D02*
X150792409Y-60059859D01*
X150792409Y-60059859D02*
X151316219Y-60059859D01*
X150649552Y-59583668D02*
X151649552Y-59583668D01*
X150697171Y-59583668D02*
X150649552Y-59488430D01*
X150649552Y-59488430D02*
X150649552Y-59297954D01*
X150649552Y-59297954D02*
X150697171Y-59202716D01*
X150697171Y-59202716D02*
X150744790Y-59155097D01*
X150744790Y-59155097D02*
X150840028Y-59107478D01*
X150840028Y-59107478D02*
X151125742Y-59107478D01*
X151125742Y-59107478D02*
X151220980Y-59155097D01*
X151220980Y-59155097D02*
X151268600Y-59202716D01*
X151268600Y-59202716D02*
X151316219Y-59297954D01*
X151316219Y-59297954D02*
X151316219Y-59488430D01*
X151316219Y-59488430D02*
X151268600Y-59583668D01*
X150649552Y-58250335D02*
X151316219Y-58250335D01*
X150649552Y-58678906D02*
X151173361Y-58678906D01*
X151173361Y-58678906D02*
X151268600Y-58631287D01*
X151268600Y-58631287D02*
X151316219Y-58536049D01*
X151316219Y-58536049D02*
X151316219Y-58393192D01*
X151316219Y-58393192D02*
X151268600Y-58297954D01*
X151268600Y-58297954D02*
X151220980Y-58250335D01*
X150649552Y-57917001D02*
X150649552Y-57536049D01*
X150316219Y-57774144D02*
X151173361Y-57774144D01*
X151173361Y-57774144D02*
X151268600Y-57726525D01*
X151268600Y-57726525D02*
X151316219Y-57631287D01*
X151316219Y-57631287D02*
X151316219Y-57536049D01*
D11*
X114204115Y-48235580D02*
X114204115Y-49235580D01*
X113727925Y-48235580D02*
X113727925Y-49235580D01*
X113727925Y-49235580D02*
X113156497Y-48235580D01*
X113156497Y-48235580D02*
X113156497Y-49235580D01*
X112732217Y-68792609D02*
X112875074Y-68840228D01*
X112875074Y-68840228D02*
X112922693Y-68887847D01*
X112922693Y-68887847D02*
X112970312Y-68983085D01*
X112970312Y-68983085D02*
X112970312Y-69125942D01*
X112970312Y-69125942D02*
X112922693Y-69221180D01*
X112922693Y-69221180D02*
X112875074Y-69268800D01*
X112875074Y-69268800D02*
X112779836Y-69316419D01*
X112779836Y-69316419D02*
X112398884Y-69316419D01*
X112398884Y-69316419D02*
X112398884Y-68316419D01*
X112398884Y-68316419D02*
X112732217Y-68316419D01*
X112732217Y-68316419D02*
X112827455Y-68364038D01*
X112827455Y-68364038D02*
X112875074Y-68411657D01*
X112875074Y-68411657D02*
X112922693Y-68506895D01*
X112922693Y-68506895D02*
X112922693Y-68602133D01*
X112922693Y-68602133D02*
X112875074Y-68697371D01*
X112875074Y-68697371D02*
X112827455Y-68744990D01*
X112827455Y-68744990D02*
X112732217Y-68792609D01*
X112732217Y-68792609D02*
X112398884Y-68792609D01*
X113351265Y-69030704D02*
X113827455Y-69030704D01*
X113256027Y-69316419D02*
X113589360Y-68316419D01*
X113589360Y-68316419D02*
X113922693Y-69316419D01*
X114827455Y-69221180D02*
X114779836Y-69268800D01*
X114779836Y-69268800D02*
X114636979Y-69316419D01*
X114636979Y-69316419D02*
X114541741Y-69316419D01*
X114541741Y-69316419D02*
X114398884Y-69268800D01*
X114398884Y-69268800D02*
X114303646Y-69173561D01*
X114303646Y-69173561D02*
X114256027Y-69078323D01*
X114256027Y-69078323D02*
X114208408Y-68887847D01*
X114208408Y-68887847D02*
X114208408Y-68744990D01*
X114208408Y-68744990D02*
X114256027Y-68554514D01*
X114256027Y-68554514D02*
X114303646Y-68459276D01*
X114303646Y-68459276D02*
X114398884Y-68364038D01*
X114398884Y-68364038D02*
X114541741Y-68316419D01*
X114541741Y-68316419D02*
X114636979Y-68316419D01*
X114636979Y-68316419D02*
X114779836Y-68364038D01*
X114779836Y-68364038D02*
X114827455Y-68411657D01*
X115256027Y-69316419D02*
X115256027Y-68316419D01*
X115827455Y-69316419D02*
X115398884Y-68744990D01*
X115827455Y-68316419D02*
X115256027Y-68887847D01*
X140204115Y-48235580D02*
X140204115Y-49235580D01*
X139727925Y-48235580D02*
X139727925Y-49235580D01*
X139727925Y-49235580D02*
X139156497Y-48235580D01*
X139156497Y-48235580D02*
X139156497Y-49235580D01*
X138732217Y-68792609D02*
X138875074Y-68840228D01*
X138875074Y-68840228D02*
X138922693Y-68887847D01*
X138922693Y-68887847D02*
X138970312Y-68983085D01*
X138970312Y-68983085D02*
X138970312Y-69125942D01*
X138970312Y-69125942D02*
X138922693Y-69221180D01*
X138922693Y-69221180D02*
X138875074Y-69268800D01*
X138875074Y-69268800D02*
X138779836Y-69316419D01*
X138779836Y-69316419D02*
X138398884Y-69316419D01*
X138398884Y-69316419D02*
X138398884Y-68316419D01*
X138398884Y-68316419D02*
X138732217Y-68316419D01*
X138732217Y-68316419D02*
X138827455Y-68364038D01*
X138827455Y-68364038D02*
X138875074Y-68411657D01*
X138875074Y-68411657D02*
X138922693Y-68506895D01*
X138922693Y-68506895D02*
X138922693Y-68602133D01*
X138922693Y-68602133D02*
X138875074Y-68697371D01*
X138875074Y-68697371D02*
X138827455Y-68744990D01*
X138827455Y-68744990D02*
X138732217Y-68792609D01*
X138732217Y-68792609D02*
X138398884Y-68792609D01*
X139351265Y-69030704D02*
X139827455Y-69030704D01*
X139256027Y-69316419D02*
X139589360Y-68316419D01*
X139589360Y-68316419D02*
X139922693Y-69316419D01*
X140827455Y-69221180D02*
X140779836Y-69268800D01*
X140779836Y-69268800D02*
X140636979Y-69316419D01*
X140636979Y-69316419D02*
X140541741Y-69316419D01*
X140541741Y-69316419D02*
X140398884Y-69268800D01*
X140398884Y-69268800D02*
X140303646Y-69173561D01*
X140303646Y-69173561D02*
X140256027Y-69078323D01*
X140256027Y-69078323D02*
X140208408Y-68887847D01*
X140208408Y-68887847D02*
X140208408Y-68744990D01*
X140208408Y-68744990D02*
X140256027Y-68554514D01*
X140256027Y-68554514D02*
X140303646Y-68459276D01*
X140303646Y-68459276D02*
X140398884Y-68364038D01*
X140398884Y-68364038D02*
X140541741Y-68316419D01*
X140541741Y-68316419D02*
X140636979Y-68316419D01*
X140636979Y-68316419D02*
X140779836Y-68364038D01*
X140779836Y-68364038D02*
X140827455Y-68411657D01*
X141256027Y-69316419D02*
X141256027Y-68316419D01*
X141827455Y-69316419D02*
X141398884Y-68744990D01*
X141827455Y-68316419D02*
X141256027Y-68887847D01*
D12*
%TO.C,U301*%
X182551400Y-94315400D02*
X182551400Y-93365400D01*
X182551400Y-84095400D02*
X182551400Y-85045400D01*
X181601400Y-94315400D02*
X182551400Y-94315400D01*
X181601400Y-84095400D02*
X182551400Y-84095400D01*
X173281400Y-94315400D02*
X172331400Y-94315400D01*
X173281400Y-84095400D02*
X172331400Y-84095400D01*
X172331400Y-94315400D02*
X172331400Y-93365400D01*
X172331400Y-85045400D02*
X170991400Y-85045400D01*
X172331400Y-84095400D02*
X172331400Y-85045400D01*
%TO.C,J301*%
X178185000Y-56997600D02*
X178185000Y-57632600D01*
X177550000Y-56997600D02*
X178185000Y-56997600D01*
%TO.C,C305*%
X173969652Y-98195400D02*
X173447148Y-98195400D01*
X173969652Y-96725400D02*
X173447148Y-96725400D01*
%TO.C,R605*%
X115797064Y-98880600D02*
X115342936Y-98880600D01*
X115797064Y-97410600D02*
X115342936Y-97410600D01*
%TO.C,U604*%
X142936400Y-97492400D02*
X139636400Y-97492400D01*
X142936400Y-91442400D02*
X142936400Y-97492400D01*
X142136400Y-90642400D02*
X142936400Y-91442400D01*
X139636400Y-97492400D02*
X139636400Y-90642400D01*
X139636400Y-90642400D02*
X142136400Y-90642400D01*
%TO.C,D303*%
X176898400Y-62666800D02*
X178498400Y-62666800D01*
X176898400Y-65666800D02*
X176898400Y-62666800D01*
X177698400Y-66466800D02*
X176898400Y-65666800D01*
X178498400Y-62666800D02*
X178498400Y-66466800D01*
X178498400Y-66466800D02*
X177698400Y-66466800D01*
%TO.C,C601*%
X145454148Y-83753400D02*
X145976652Y-83753400D01*
X145454148Y-85223400D02*
X145976652Y-85223400D01*
%TO.C,C615*%
X135217400Y-94328652D02*
X135217400Y-93806148D01*
X136687400Y-94328652D02*
X136687400Y-93806148D01*
%TO.C,R610*%
X114948964Y-79405400D02*
X114494836Y-79405400D01*
X114948964Y-77935400D02*
X114494836Y-77935400D01*
%TO.C,C610*%
X145885400Y-94328652D02*
X145885400Y-93806148D01*
X147355400Y-94328652D02*
X147355400Y-93806148D01*
%TO.C,R404*%
X104240936Y-129614200D02*
X104695064Y-129614200D01*
X104240936Y-131084200D02*
X104695064Y-131084200D01*
%TO.C,D403*%
X186250900Y-122897400D02*
X186250900Y-124497400D01*
X183250900Y-122897400D02*
X186250900Y-122897400D01*
X182450900Y-123697400D02*
X183250900Y-122897400D01*
X186250900Y-124497400D02*
X182450900Y-124497400D01*
X182450900Y-124497400D02*
X182450900Y-123697400D01*
%TO.C,C303*%
X167816400Y-92006652D02*
X167816400Y-91484148D01*
X169286400Y-92006652D02*
X169286400Y-91484148D01*
%TO.C,C608*%
X132820148Y-73593400D02*
X133342652Y-73593400D01*
X132820148Y-75063400D02*
X133342652Y-75063400D01*
%TO.C,R608*%
X141744336Y-71307400D02*
X142198464Y-71307400D01*
X141744336Y-72777400D02*
X142198464Y-72777400D01*
%TO.C,C403*%
X184193148Y-118136400D02*
X184715652Y-118136400D01*
X184193148Y-119606400D02*
X184715652Y-119606400D01*
%TO.C,C402*%
X104206748Y-131900200D02*
X104729252Y-131900200D01*
X104206748Y-133370200D02*
X104729252Y-133370200D01*
%TO.C,R615*%
X131665400Y-86134336D02*
X131665400Y-86588464D01*
X130195400Y-86134336D02*
X130195400Y-86588464D01*
%TO.C,C409*%
X167467252Y-126563000D02*
X166944748Y-126563000D01*
X167467252Y-125093000D02*
X166944748Y-125093000D01*
%TO.C,R501*%
X196670600Y-63473064D02*
X196670600Y-63018936D01*
X195200600Y-63473064D02*
X195200600Y-63018936D01*
%TO.C,U603*%
X137399400Y-73784400D02*
X135599400Y-73784400D01*
X137399400Y-73784400D02*
X138199400Y-73784400D01*
X137399400Y-76904400D02*
X136599400Y-76904400D01*
X137399400Y-76904400D02*
X138199400Y-76904400D01*
%TO.C,C621*%
X145944600Y-77713148D02*
X145944600Y-78235652D01*
X144474600Y-77713148D02*
X144474600Y-78235652D01*
%TO.C,C406*%
X148659652Y-106497000D02*
X148137148Y-106497000D01*
X148659652Y-105027000D02*
X148137148Y-105027000D01*
%TO.C,C401*%
X104195148Y-111786400D02*
X104717652Y-111786400D01*
X104195148Y-113256400D02*
X104717652Y-113256400D01*
%TO.C,R303*%
X180387000Y-70127336D02*
X180387000Y-70581464D01*
X178917000Y-70127336D02*
X178917000Y-70581464D01*
%TO.C,R502*%
X193750536Y-71803800D02*
X194204664Y-71803800D01*
X193750536Y-73273800D02*
X194204664Y-73273800D01*
%TO.C,R204*%
X124738464Y-88874400D02*
X124284336Y-88874400D01*
X124738464Y-87404400D02*
X124284336Y-87404400D01*
%TO.C,C622*%
X149584148Y-71307400D02*
X150106652Y-71307400D01*
X149584148Y-72777400D02*
X150106652Y-72777400D01*
%TO.C,R614*%
X138523400Y-85880336D02*
X138523400Y-86334464D01*
X137053400Y-85880336D02*
X137053400Y-86334464D01*
%TO.C,C616*%
X114460648Y-73363400D02*
X114983152Y-73363400D01*
X114460648Y-74833400D02*
X114983152Y-74833400D01*
%TO.C,C311*%
X173969652Y-98829400D02*
X173447148Y-98829400D01*
X173969652Y-100299400D02*
X173447148Y-100299400D01*
%TO.C,C206*%
X194079800Y-104422348D02*
X194079800Y-104944852D01*
X192609800Y-104422348D02*
X192609800Y-104944852D01*
%TO.C,C609*%
X115831252Y-95277000D02*
X115308748Y-95277000D01*
X115831252Y-96747000D02*
X115308748Y-96747000D01*
%TO.C,C612*%
X143599400Y-94328652D02*
X143599400Y-93806148D01*
X145069400Y-94328652D02*
X145069400Y-93806148D01*
%TO.C,D401*%
X112676400Y-108241400D02*
X112676400Y-106641400D01*
X115676400Y-108241400D02*
X112676400Y-108241400D01*
X116476400Y-107441400D02*
X115676400Y-108241400D01*
X112676400Y-106641400D02*
X116476400Y-106641400D01*
X116476400Y-106641400D02*
X116476400Y-107441400D01*
%TO.C,R306*%
X177214200Y-79833736D02*
X177214200Y-80287864D01*
X175744200Y-79833736D02*
X175744200Y-80287864D01*
%TO.C,R613*%
X106595964Y-74833400D02*
X106141836Y-74833400D01*
X106595964Y-73363400D02*
X106141836Y-73363400D01*
%TO.C,C302*%
X181183252Y-98216600D02*
X180660748Y-98216600D01*
X181183252Y-96746600D02*
X180660748Y-96746600D01*
%TO.C,U606*%
X150099400Y-73784400D02*
X148299400Y-73784400D01*
X150099400Y-73784400D02*
X150899400Y-73784400D01*
X150099400Y-76904400D02*
X149299400Y-76904400D01*
X150099400Y-76904400D02*
X150899400Y-76904400D01*
%TO.C,R205*%
X124284336Y-85118400D02*
X124738464Y-85118400D01*
X124284336Y-86588400D02*
X124738464Y-86588400D01*
%TO.C,R601*%
X145488336Y-86039400D02*
X145942464Y-86039400D01*
X145488336Y-87509400D02*
X145942464Y-87509400D01*
%TO.C,C501*%
X194289652Y-71038600D02*
X193767148Y-71038600D01*
X194289652Y-69568600D02*
X193767148Y-69568600D01*
%TO.C,R612*%
X141744336Y-78165400D02*
X142198464Y-78165400D01*
X141744336Y-79635400D02*
X142198464Y-79635400D01*
%TO.C,C308*%
X163097652Y-91210400D02*
X162575148Y-91210400D01*
X163097652Y-89740400D02*
X162575148Y-89740400D01*
%TO.C,R607*%
X114494836Y-80221400D02*
X114948964Y-80221400D01*
X114494836Y-81691400D02*
X114948964Y-81691400D01*
%TO.C,C623*%
X133971148Y-85626400D02*
X134493652Y-85626400D01*
X133971148Y-87096400D02*
X134493652Y-87096400D01*
%TO.C,D302*%
X180726000Y-55359200D02*
X180726000Y-53759200D01*
X183726000Y-55359200D02*
X180726000Y-55359200D01*
X184526000Y-54559200D02*
X183726000Y-55359200D01*
X180726000Y-53759200D02*
X184526000Y-53759200D01*
X184526000Y-53759200D02*
X184526000Y-54559200D01*
%TO.C,C619*%
X106630152Y-81691400D02*
X106107648Y-81691400D01*
X106630152Y-80221400D02*
X106107648Y-80221400D01*
%TO.C,D301*%
X180726000Y-58458000D02*
X180726000Y-56858000D01*
X183726000Y-58458000D02*
X180726000Y-58458000D01*
X184526000Y-57658000D02*
X183726000Y-58458000D01*
X180726000Y-56858000D02*
X184526000Y-56858000D01*
X184526000Y-56858000D02*
X184526000Y-57658000D01*
%TO.C,C207*%
X196365800Y-104422348D02*
X196365800Y-104944852D01*
X194895800Y-104422348D02*
X194895800Y-104944852D01*
%TO.C,C606*%
X129532652Y-75063400D02*
X129010148Y-75063400D01*
X129532652Y-73593400D02*
X129010148Y-73593400D01*
%TO.C,R603*%
X129498464Y-77349400D02*
X129044336Y-77349400D01*
X129498464Y-75879400D02*
X129044336Y-75879400D01*
%TO.C,D601*%
X129144000Y-66209200D02*
X127544000Y-66209200D01*
X129144000Y-63209200D02*
X129144000Y-66209200D01*
X128344000Y-62409200D02*
X129144000Y-63209200D01*
X127544000Y-66209200D02*
X127544000Y-62409200D01*
X127544000Y-62409200D02*
X128344000Y-62409200D01*
%TO.C,U501*%
X194864400Y-65343600D02*
X193064400Y-65343600D01*
X194864400Y-65343600D02*
X195664400Y-65343600D01*
X194864400Y-68463600D02*
X194064400Y-68463600D01*
X194864400Y-68463600D02*
X195664400Y-68463600D01*
%TO.C,C202*%
X190573400Y-76064652D02*
X190573400Y-75542148D01*
X192043400Y-76064652D02*
X192043400Y-75542148D01*
%TO.C,C607*%
X149518148Y-89849400D02*
X150040652Y-89849400D01*
X149518148Y-91319400D02*
X150040652Y-91319400D01*
%TO.C,L201*%
X194154400Y-75403778D02*
X194154400Y-76203022D01*
X193034400Y-75403778D02*
X193034400Y-76203022D01*
%TO.C,R402*%
X104695064Y-135656200D02*
X104240936Y-135656200D01*
X104695064Y-134186200D02*
X104240936Y-134186200D01*
%TO.C,C620*%
X150106652Y-79635400D02*
X149584148Y-79635400D01*
X150106652Y-78165400D02*
X149584148Y-78165400D01*
%TO.C,D304*%
X180726000Y-60236000D02*
X180726000Y-58636000D01*
X183726000Y-60236000D02*
X180726000Y-60236000D01*
X184526000Y-59436000D02*
X183726000Y-60236000D01*
X180726000Y-58636000D02*
X184526000Y-58636000D01*
X184526000Y-58636000D02*
X184526000Y-59436000D01*
%TO.C,C618*%
X114983152Y-77119400D02*
X114460648Y-77119400D01*
X114983152Y-75649400D02*
X114460648Y-75649400D01*
%TO.C,C602*%
X145976652Y-89795400D02*
X145454148Y-89795400D01*
X145976652Y-88325400D02*
X145454148Y-88325400D01*
%TO.C,D305*%
X174485200Y-66416000D02*
X173685200Y-66416000D01*
X174485200Y-62616000D02*
X174485200Y-66416000D01*
X173685200Y-66416000D02*
X172885200Y-65616000D01*
X172885200Y-65616000D02*
X172885200Y-62616000D01*
X172885200Y-62616000D02*
X174485200Y-62616000D01*
%TO.C,C201*%
X196615400Y-75542148D02*
X196615400Y-76064652D01*
X195145400Y-75542148D02*
X195145400Y-76064652D01*
%TO.C,U201*%
X126398400Y-96901400D02*
X126398400Y-98041400D01*
X126628400Y-98041400D02*
X126398400Y-98041400D01*
X126628400Y-98041400D02*
X126628400Y-100761400D01*
X121908400Y-98041400D02*
X122138400Y-98041400D01*
X126628400Y-100761400D02*
X125318400Y-100761400D01*
X123218400Y-100761400D02*
X121908400Y-100761400D01*
X121908400Y-100761400D02*
X121908400Y-98041400D01*
%TO.C,D602*%
X103388400Y-66209200D02*
X101788400Y-66209200D01*
X103388400Y-63209200D02*
X103388400Y-66209200D01*
X102588400Y-62409200D02*
X103388400Y-63209200D01*
X101788400Y-66209200D02*
X101788400Y-62409200D01*
X101788400Y-62409200D02*
X102588400Y-62409200D01*
%TO.C,U605*%
X106368900Y-79214400D02*
X108168900Y-79214400D01*
X106368900Y-79214400D02*
X105568900Y-79214400D01*
X106368900Y-76094400D02*
X107168900Y-76094400D01*
X106368900Y-76094400D02*
X105568900Y-76094400D01*
%TO.C,R611*%
X142198464Y-77349400D02*
X141744336Y-77349400D01*
X142198464Y-75879400D02*
X141744336Y-75879400D01*
%TO.C,C603*%
X110344852Y-88974600D02*
X109822348Y-88974600D01*
X110344852Y-87504600D02*
X109822348Y-87504600D01*
%TO.C,R602*%
X129044336Y-71307400D02*
X129498464Y-71307400D01*
X129044336Y-72777400D02*
X129498464Y-72777400D01*
%TO.C,C407*%
X148671252Y-126613800D02*
X148148748Y-126613800D01*
X148671252Y-125143800D02*
X148148748Y-125143800D01*
%TO.C,R403*%
X104229336Y-109500400D02*
X104683464Y-109500400D01*
X104229336Y-110970400D02*
X104683464Y-110970400D01*
%TO.C,C310*%
X172989948Y-80287400D02*
X173512452Y-80287400D01*
X172989948Y-81757400D02*
X173512452Y-81757400D01*
%TO.C,C614*%
X137503400Y-94328652D02*
X137503400Y-93806148D01*
X138973400Y-94328652D02*
X138973400Y-93806148D01*
%TO.C,R604*%
X132854336Y-75879400D02*
X133308464Y-75879400D01*
X132854336Y-77349400D02*
X133308464Y-77349400D01*
%TO.C,C307*%
X168177652Y-84860400D02*
X167655148Y-84860400D01*
X168177652Y-83390400D02*
X167655148Y-83390400D01*
%TO.C,D402*%
X116008400Y-128525400D02*
X116008400Y-129325400D01*
X112208400Y-128525400D02*
X116008400Y-128525400D01*
X116008400Y-129325400D02*
X115208400Y-130125400D01*
X115208400Y-130125400D02*
X112208400Y-130125400D01*
X112208400Y-130125400D02*
X112208400Y-128525400D01*
%TO.C,C306*%
X165276400Y-92006652D02*
X165276400Y-91484148D01*
X166746400Y-92006652D02*
X166746400Y-91484148D01*
%TO.C,C617*%
X144099252Y-75063400D02*
X143576748Y-75063400D01*
X144099252Y-73593400D02*
X143576748Y-73593400D01*
%TO.C,C304*%
X163631148Y-82410400D02*
X164153652Y-82410400D01*
X163631148Y-83880400D02*
X164153652Y-83880400D01*
%TO.C,R304*%
X184146200Y-70127336D02*
X184146200Y-70581464D01*
X182676200Y-70127336D02*
X182676200Y-70581464D01*
%TO.C,R203*%
X200937800Y-104456536D02*
X200937800Y-104910664D01*
X199467800Y-104456536D02*
X199467800Y-104910664D01*
D11*
%TO.C,SW402*%
X108516400Y-114411400D02*
X108516400Y-117411400D01*
D12*
X110866400Y-120061400D02*
X118366399Y-120061400D01*
X118366400Y-111761400D02*
X110866401Y-111761400D01*
D11*
X120716400Y-114411400D02*
X120716400Y-117411400D01*
D13*
X118885005Y-113371400D02*
G75*
G03*
X118885005Y-113371400I-204605J0D01*
G01*
D12*
%TO.C,C309*%
X186330600Y-84418748D02*
X186330600Y-84941252D01*
X184860600Y-84418748D02*
X184860600Y-84941252D01*
%TO.C,R305*%
X176627800Y-70129236D02*
X176627800Y-70583364D01*
X175157800Y-70129236D02*
X175157800Y-70583364D01*
%TO.C,C408*%
X167568852Y-106497000D02*
X167046348Y-106497000D01*
X167568852Y-105027000D02*
X167046348Y-105027000D01*
%TO.C,C203*%
X122541400Y-94410652D02*
X122541400Y-93888148D01*
X124011400Y-94410652D02*
X124011400Y-93888148D01*
%TO.C,C611*%
X137204148Y-71549800D02*
X137726652Y-71549800D01*
X137204148Y-73019800D02*
X137726652Y-73019800D01*
%TO.C,U601*%
X149779400Y-83690400D02*
X148104400Y-83690400D01*
X149779400Y-83690400D02*
X150429400Y-83690400D01*
X149779400Y-86810400D02*
X149129400Y-86810400D01*
X149779400Y-86810400D02*
X150429400Y-86810400D01*
%TO.C,C208*%
X124772652Y-91160400D02*
X124250148Y-91160400D01*
X124772652Y-89690400D02*
X124250148Y-89690400D01*
D11*
%TO.C,SW403*%
X108516400Y-134223400D02*
X108516400Y-137223400D01*
D12*
X110866400Y-139873400D02*
X118366399Y-139873400D01*
X118366400Y-131573400D02*
X110866401Y-131573400D01*
D11*
X120716400Y-134223400D02*
X120716400Y-137223400D01*
D13*
X118885005Y-133183400D02*
G75*
G03*
X118885005Y-133183400I-204605J0D01*
G01*
D12*
%TO.C,U602*%
X113074600Y-91716800D02*
X113074600Y-95016800D01*
X107024600Y-91716800D02*
X113074600Y-91716800D01*
X106224600Y-92516800D02*
X107024600Y-91716800D01*
X113074600Y-95016800D02*
X106224600Y-95016800D01*
X106224600Y-95016800D02*
X106224600Y-92516800D01*
%TO.C,C613*%
X114983152Y-83977400D02*
X114460648Y-83977400D01*
X114983152Y-82507400D02*
X114460648Y-82507400D01*
%TO.C,D405*%
X115184000Y-140170000D02*
X115184000Y-141770000D01*
X112184000Y-140170000D02*
X115184000Y-140170000D01*
X111384000Y-140970000D02*
X112184000Y-140170000D01*
X115184000Y-141770000D02*
X111384000Y-141770000D01*
X111384000Y-141770000D02*
X111384000Y-140970000D01*
%TO.C,C301*%
X178730348Y-98880200D02*
X179252852Y-98880200D01*
X178730348Y-100350200D02*
X179252852Y-100350200D01*
%TO.C,U202*%
X201188800Y-100244100D02*
X201188800Y-98444100D01*
X201188800Y-100244100D02*
X201188800Y-101044100D01*
X198068800Y-100244100D02*
X198068800Y-99444100D01*
X198068800Y-100244100D02*
X198068800Y-101044100D01*
%TO.C,R202*%
X197181800Y-104910664D02*
X197181800Y-104456536D01*
X198651800Y-104910664D02*
X198651800Y-104456536D01*
%TO.C,R405*%
X184227336Y-120676400D02*
X184681464Y-120676400D01*
X184227336Y-122146400D02*
X184681464Y-122146400D01*
%TO.C,C404*%
X130180052Y-106497000D02*
X129657548Y-106497000D01*
X130180052Y-105027000D02*
X129657548Y-105027000D01*
%TO.C,C605*%
X149518148Y-87563400D02*
X150040652Y-87563400D01*
X149518148Y-89033400D02*
X150040652Y-89033400D01*
%TO.C,R406*%
X104683464Y-117828400D02*
X104229336Y-117828400D01*
X104683464Y-116358400D02*
X104229336Y-116358400D01*
D11*
%TO.C,Y301*%
X165606900Y-84887400D02*
X165606900Y-88570400D01*
X165606900Y-88570400D02*
X165352900Y-88824400D01*
X165352900Y-88824400D02*
X162685900Y-88824400D01*
D14*
X163282400Y-84633400D02*
G75*
G03*
X163282400Y-84633400I-88500J0D01*
G01*
D12*
%TO.C,C205*%
X119356200Y-96781252D02*
X119356200Y-96258748D01*
X120826200Y-96781252D02*
X120826200Y-96258748D01*
%TO.C,R302*%
X172970200Y-70246536D02*
X172970200Y-70700664D01*
X171500200Y-70246536D02*
X171500200Y-70700664D01*
%TO.C,U203*%
X124511400Y-81245400D02*
X122711400Y-81245400D01*
X124511400Y-81245400D02*
X125311400Y-81245400D01*
X124511400Y-84365400D02*
X123711400Y-84365400D01*
X124511400Y-84365400D02*
X125311400Y-84365400D01*
%TO.C,C209*%
X124250148Y-79022400D02*
X124772652Y-79022400D01*
X124250148Y-80492400D02*
X124772652Y-80492400D01*
%TO.C,J501*%
X202384400Y-72091400D02*
X200684400Y-72091400D01*
X202384400Y-62751400D02*
X200684400Y-62751400D01*
%TO.C,C604*%
X110344852Y-91260600D02*
X109822348Y-91260600D01*
X110344852Y-89790600D02*
X109822348Y-89790600D01*
%TO.C,R401*%
X104683464Y-115539400D02*
X104229336Y-115539400D01*
X104683464Y-114069400D02*
X104229336Y-114069400D01*
%TO.C,C204*%
X199956052Y-97290600D02*
X199433548Y-97290600D01*
X199956052Y-95820600D02*
X199433548Y-95820600D01*
%TO.C,R609*%
X145631336Y-96380400D02*
X146085464Y-96380400D01*
X145631336Y-97850400D02*
X146085464Y-97850400D01*
%TO.C,R301*%
X167689336Y-87200400D02*
X168143464Y-87200400D01*
X167689336Y-88670400D02*
X168143464Y-88670400D01*
%TO.C,R407*%
X104695064Y-137942200D02*
X104240936Y-137942200D01*
X104695064Y-136472200D02*
X104240936Y-136472200D01*
%TO.C,R606*%
X114464336Y-84859400D02*
X114918464Y-84859400D01*
X114464336Y-86329400D02*
X114918464Y-86329400D01*
%TO.C,R201*%
X126297400Y-93922336D02*
X126297400Y-94376464D01*
X124827400Y-93922336D02*
X124827400Y-94376464D01*
%TO.C,D404*%
X115285600Y-120408800D02*
X115285600Y-122008800D01*
X112285600Y-120408800D02*
X115285600Y-120408800D01*
X111485600Y-121208800D02*
X112285600Y-120408800D01*
X115285600Y-122008800D02*
X111485600Y-122008800D01*
X111485600Y-122008800D02*
X111485600Y-121208800D01*
%TO.C,C405*%
X130115652Y-126634400D02*
X129593148Y-126634400D01*
X130115652Y-125164400D02*
X129593148Y-125164400D01*
%TO.C,C312*%
X167690200Y-70734852D02*
X167690200Y-70212348D01*
X169160200Y-70734852D02*
X169160200Y-70212348D01*
%TD*%
M02*
