M48
; DRILL file {KiCad 7.0.9} date Fri Dec 29 23:29:50 2023
; FORMAT={-:-/ absolute / metric / decimal}
; #@! TF.CreationDate,2023-12-29T23:29:50+01:00
; #@! TF.GenerationSoftware,Kicad,Pcbnew,7.0.9
; #@! TF.FileFunction,MixedPlating,1,4
FMAT,2
METRIC
; #@! TA.AperFunction,Plated,PTH,ViaDrill
T1C0.300
; #@! TA.AperFunction,Plated,PTH,ViaDrill
T2C0.400
; #@! TA.AperFunction,Plated,PTH,ComponentDrill
T3C0.600
; #@! TA.AperFunction,Plated,PTH,ComponentDrill
T4C1.000
; #@! TA.AperFunction,Plated,PTH,ComponentDrill
T5C1.200
; #@! TA.AperFunction,Plated,PTH,ComponentDrill
T6C1.400
; #@! TA.AperFunction,Plated,PTH,ComponentDrill
T7C1.800
; #@! TA.AperFunction,Plated,PTH,ComponentDrill
T8C3.200
; #@! TA.AperFunction,NonPlated,NPTH,ComponentDrill
T9C0.650
; #@! TA.AperFunction,NonPlated,NPTH,ComponentDrill
T10C0.991
; #@! TA.AperFunction,NonPlated,NPTH,ComponentDrill
T11C2.375
%
G90
G05
T1
X102.565Y-61.722
X104.699Y-79.705
X105.512Y-79.705
X105.816Y-93.624
X106.375Y-96.418
X106.883Y-112.522
X106.985Y-132.639
X107.319Y-82.368
X109.423Y-97.13
X111.049Y-86.817
X111.912Y-95.656
X112.37Y-89.357
X112.827Y-95.656
X113.792Y-94.386
X114.605Y-93.218
X114.706Y-94.539
X115.391Y-92.781
X116.942Y-83.261
X117.043Y-76.403
X118.008Y-95.555
X118.059Y-96.977
X119.431Y-100.127
X120.142Y-94.336
X120.447Y-100.178
X121.361Y-100.228
X121.818Y-91.846
X121.92Y-81.382
X121.92Y-82.804
X122.377Y-99.009
X123.647Y-91.948
X127.0Y-76.606
X127.051Y-74.422
X127.203Y-93.218
X127.305Y-79.756
X127.356Y-97.434
X128.321Y-61.773
X135.28Y-71.526
X135.992Y-91.897
X138.227Y-91.897
X139.497Y-91.237
X139.7Y-73.355
X142.951Y-95.606
X142.951Y-96.52
X143.561Y-83.312
X143.612Y-85.598
X143.662Y-89.935
X145.491Y-92.507
X146.863Y-73.558
X146.863Y-74.727
X146.863Y-75.844
X147.98Y-93.066
X150.114Y-70.256
X150.673Y-95.199
X150.774Y-86.157
X150.774Y-86.97
X150.825Y-84.125
X151.892Y-95.098
X152.146Y-97.079
X152.908Y-96.114
X152.918Y-94.691
X153.162Y-97.18
X160.223Y-93.777
X161.798Y-87.325
X161.849Y-88.748
X164.643Y-92.71
X165.76Y-84.379
X165.811Y-95.165
X165.811Y-94.266
X165.813Y-96.065
X165.913Y-79.451
X165.964Y-89.662
X166.98Y-82.55
X166.98Y-85.649
X168.402Y-68.224
X168.554Y-89.611
X171.806Y-97.434
X171.806Y-99.568
X173.126Y-78.181
X173.482Y-90.83
X173.482Y-103.886
X173.685Y-66.599
X174.202Y-104.426
X174.346Y-79.654
X174.701Y-101.143
X174.955Y-88.595
X175.158Y-79.197
X175.656Y-102.757
X175.768Y-90.119
X175.981Y-103.596
X177.292Y-101.6
X177.698Y-66.65
X177.928Y-102.236
X178.918Y-76.556
X179.181Y-77.753
X179.375Y-74.421
X179.375Y-75.336
X179.934Y-100.99
X180.691Y-79.096
X180.696Y-78.029
X180.696Y-93.574
X180.968Y-108.871
X181.0Y-51.156
X181.508Y-56.185
X181.864Y-98.908
X183.286Y-56.083
X183.286Y-125.12
X183.794Y-60.452
X184.353Y-56.083
X184.404Y-99.365
X184.683Y-100.355
X185.369Y-117.196
X185.623Y-82.499
X187.096Y-85.649
X190.144Y-102.819
X190.144Y-104.191
X190.177Y-105.544
X190.805Y-73.558
X191.313Y-77.978
X191.313Y-77.978
X191.313Y-102.819
X191.313Y-104.191
X191.313Y-105.562
X191.872Y-71.476
X191.872Y-73.558
X192.704Y-67.174
X193.599Y-77.978
X194.107Y-64.821
X194.462Y-107.29
X194.716Y-74.727
X194.869Y-69.037
X197.866Y-76.962
X198.73Y-95.047
X199.136Y-76.962
X199.632Y-102.489
T2
X97.5Y-52.5
X97.5Y-55.0
X97.5Y-57.5
X97.5Y-60.0
X97.5Y-62.5
X97.5Y-65.0
X97.5Y-67.5
X97.5Y-70.0
X97.5Y-72.5
X97.5Y-75.0
X97.5Y-77.5
X97.5Y-80.0
X97.5Y-82.5
X97.5Y-85.0
X97.5Y-87.5
X97.5Y-90.0
X97.5Y-92.5
X97.5Y-95.0
X97.5Y-97.5
X97.5Y-100.0
X97.5Y-102.5
X97.5Y-105.0
X97.5Y-107.5
X97.5Y-110.0
X97.5Y-112.5
X97.5Y-115.0
X97.5Y-117.5
X97.5Y-120.0
X97.5Y-122.5
X97.5Y-125.0
X97.5Y-127.5
X97.5Y-130.0
X97.5Y-132.5
X97.5Y-135.0
X97.5Y-137.5
X100.0Y-50.0
X100.0Y-140.0
X102.5Y-50.0
X102.5Y-142.5
X105.0Y-142.5
X107.5Y-142.5
X110.0Y-142.5
X112.5Y-142.5
X115.0Y-142.5
X117.5Y-142.5
X120.0Y-142.5
X122.5Y-142.5
X125.0Y-50.0
X125.0Y-142.5
X127.5Y-50.0
X127.5Y-142.5
X130.0Y-50.0
X130.0Y-142.5
X132.5Y-142.5
X135.0Y-142.5
X137.5Y-142.5
X140.0Y-142.5
X142.5Y-142.5
X145.0Y-142.5
X147.5Y-142.5
X150.0Y-50.0
X150.0Y-142.5
X152.5Y-50.0
X152.5Y-142.5
X155.0Y-50.0
X155.0Y-142.5
X157.5Y-142.5
X160.0Y-142.5
X162.5Y-50.0
X162.5Y-142.5
X165.0Y-50.0
X165.0Y-142.5
X167.5Y-50.0
X167.5Y-142.5
X170.0Y-50.0
X170.0Y-142.5
X172.5Y-50.0
X172.5Y-142.5
X175.0Y-50.0
X175.0Y-142.5
X177.5Y-50.0
X177.5Y-142.5
X180.0Y-50.0
X180.0Y-142.5
X182.5Y-50.0
X182.5Y-142.5
X185.0Y-50.0
X185.0Y-142.5
X187.5Y-50.0
X187.5Y-142.5
X190.0Y-50.0
X190.0Y-142.5
X192.5Y-50.0
X192.5Y-142.5
X195.0Y-50.0
X195.0Y-142.5
X197.5Y-142.5
X200.0Y-142.5
X202.5Y-50.0
X202.5Y-140.0
X205.0Y-52.5
X205.0Y-55.0
X205.0Y-57.5
X205.0Y-60.0
X205.0Y-75.0
X205.0Y-77.5
X205.0Y-80.0
X205.0Y-82.5
X205.0Y-85.0
X205.0Y-87.5
X205.0Y-90.0
X205.0Y-92.5
X205.0Y-95.0
X205.0Y-97.5
X205.0Y-102.5
X205.0Y-105.0
X205.0Y-107.5
X205.0Y-110.0
X205.0Y-112.5
X205.0Y-115.0
X205.0Y-117.5
X205.0Y-120.0
X205.0Y-122.5
X205.0Y-125.0
X205.0Y-127.5
X205.0Y-130.0
X205.0Y-132.5
X205.0Y-135.0
X205.0Y-137.5
T4
X109.616Y-115.911
X109.616Y-135.723
X112.116Y-113.411
X112.116Y-118.411
X112.116Y-133.223
X112.116Y-138.223
X114.616Y-113.411
X114.616Y-118.411
X114.616Y-133.223
X114.616Y-138.223
X117.116Y-113.411
X117.116Y-118.411
X117.116Y-133.223
X117.116Y-138.223
X119.616Y-115.911
X119.616Y-135.723
X128.587Y-128.988
X128.626Y-108.859
X131.087Y-128.988
X131.126Y-108.859
X133.587Y-128.988
X133.626Y-108.859
X147.168Y-128.977
X147.18Y-108.871
X149.668Y-128.977
X149.68Y-108.871
X152.168Y-128.977
X152.18Y-108.871
X166.027Y-108.871
X166.027Y-128.988
X168.527Y-108.871
X168.527Y-128.988
X171.027Y-108.871
X171.027Y-128.988
T5
X188.542Y-116.445
X188.542Y-126.045
X195.642Y-116.445
X195.642Y-126.045
X202.742Y-116.445
X202.742Y-126.045
T6
X105.885Y-51.6
X105.885Y-64.3
X122.115Y-51.6
X122.115Y-64.3
X131.885Y-51.6
X131.885Y-64.3
X148.115Y-51.6
X148.115Y-64.3
T8
X103.0Y-102.0
X158.0Y-54.0
X198.0Y-135.0
X199.0Y-54.0
X199.0Y-86.0
T9
X199.879Y-64.531
X199.879Y-70.311
T10
X173.74Y-57.252
X173.74Y-59.284
X178.82Y-58.268
T11
X175.645Y-55.728
X175.645Y-60.808
X178.82Y-55.728
X178.82Y-60.808
T3
G00X198.829Y-63.101
M15
G01X199.929Y-63.101
M16
G05
G00X198.829Y-71.741
M15
G01X199.929Y-71.741
M16
G05
G00X203.159Y-63.101
M15
G01X203.959Y-63.101
M16
G05
G00X203.159Y-71.741
M15
G01X203.959Y-71.741
M16
G05
T7
G00X126.687Y-135.788
M15
G01X126.687Y-136.188
M16
G05
G00X126.726Y-115.659
M15
G01X126.726Y-116.059
M16
G05
G00X135.487Y-135.788
M15
G01X135.487Y-136.188
M16
G05
G00X135.526Y-115.659
M15
G01X135.526Y-116.059
M16
G05
G00X145.268Y-135.777
M15
G01X145.268Y-136.177
M16
G05
G00X145.28Y-115.671
M15
G01X145.28Y-116.071
M16
G05
G00X154.068Y-135.777
M15
G01X154.068Y-136.177
M16
G05
G00X154.08Y-115.671
M15
G01X154.08Y-116.071
M16
G05
G00X164.127Y-115.671
M15
G01X164.127Y-116.071
M16
G05
G00X164.127Y-135.788
M15
G01X164.127Y-136.188
M16
G05
G00X172.927Y-115.671
M15
G01X172.927Y-116.071
M16
G05
G00X172.927Y-135.788
M15
G01X172.927Y-136.188
M16
G05
T0
M30
